<svg version="1.1" id="Layer_1" xmlns="http://www.w3.org/2000/svg" xmlns:xlink="http://www.w3.org/1999/xlink" x="0px" y="0px"
	 width="100%" viewBox="0 0 1080 1080" enable-background="new 0 0 1080 1080" xml:space="preserve">
<path fill="#000000" opacity="1.000000" stroke="none" 
	d="
M485.000000,1081.000000 
	C323.351929,1081.000000 162.203857,1081.000000 1.055792,1081.000000 
	C1.037193,1080.851929 1.002292,1080.703979 1.002291,1080.555908 
	C0.999991,720.764099 1.000000,360.972260 1.000000,1.090210 
	C360.898285,1.090210 720.796631,1.090210 1080.847412,1.090210 
	C1080.847412,360.999939 1080.847412,720.999939 1080.847412,1081.000000 
	C882.453125,1081.000000 683.976562,1081.000000 485.000000,1081.000000 
M626.050049,471.880371 
	C626.259399,473.262299 626.463501,475.849121 626.679016,475.850067 
	C632.146973,475.874115 637.648560,475.888550 643.059082,475.217773 
	C644.209412,475.075104 645.624451,472.349609 645.870300,470.661621 
	C646.311401,467.632233 646.262817,464.452240 642.549622,462.872864 
	C638.730652,461.248505 635.258118,461.487885 632.204224,464.323700 
	C630.355896,466.040039 628.757507,468.025513 627.004639,468.967529 
	C626.668945,461.386383 627.182678,453.647400 625.809998,446.258911 
	C623.402161,433.298401 615.946228,423.560303 603.208496,419.132050 
	C596.860229,416.925110 589.986511,416.229370 583.537781,414.888977 
	C584.481750,408.791290 585.538208,401.966888 586.616760,394.999847 
	C596.848999,394.999847 607.000671,395.006897 617.152344,394.997467 
	C624.432556,394.990723 627.975098,391.629150 628.000000,384.736511 
	C628.026550,377.375671 624.629944,374.004272 617.160645,374.001251 
	C603.856873,373.995880 590.553040,373.999756 577.076904,373.999756 
	C579.326355,364.762238 578.147949,356.528259 572.584473,349.143829 
	C570.183228,345.956757 564.209473,344.799469 561.573730,346.966339 
	C558.162964,349.770355 558.348511,352.755676 561.546509,357.184235 
	C563.096191,359.330231 564.343872,361.939026 564.887390,364.515656 
	C566.004272,369.810883 562.328186,373.998322 557.065979,373.998657 
	C524.077026,374.000885 491.088104,373.999817 458.099152,373.999817 
	C454.112366,373.999817 450.117310,373.837128 446.140808,374.039246 
	C440.620850,374.319824 436.489349,376.648376 436.842224,383.310028 
	C437.423065,394.275574 436.862610,405.297546 437.122681,416.287720 
	C437.171112,418.333740 438.380981,421.629578 439.810089,422.112213 
	C443.287354,423.286499 447.667206,424.370697 450.820038,423.188477 
	C453.903534,422.032257 455.918060,418.025269 458.113953,415.588989 
	C464.598083,420.696594 462.974121,428.870667 462.990906,436.624176 
	C463.025482,452.618713 462.986908,468.613464 463.007843,484.608063 
	C463.016907,491.545074 466.663818,495.023804 473.796417,494.999756 
	C480.426514,494.977386 483.997620,491.361389 483.999573,484.653473 
	C484.003143,472.213409 484.000549,459.773315 484.000549,447.265106 
	C490.900757,447.265106 497.299530,447.265106 503.999329,447.265106 
	C503.999329,460.328583 504.162811,473.129974 503.919800,485.923645 
	C503.821014,491.122223 507.106567,493.366730 510.914124,494.777618 
	C515.800842,496.588348 521.115234,494.673767 522.945068,490.830170 
	C524.026550,488.558472 524.869873,485.930237 524.910522,483.447418 
	C525.108643,471.346893 525.000183,459.241364 525.000183,446.928772 
	C527.353271,447.049957 529.090637,447.139435 531.000427,447.237793 
	C531.000427,456.472412 530.986267,465.287720 531.005249,474.102936 
	C531.018494,480.277191 534.825806,483.950256 541.203979,483.999390 
	C548.111450,484.052551 551.941589,480.702576 551.987366,474.419495 
	C552.044373,466.589172 552.137512,458.754669 551.936584,450.929108 
	C551.850830,447.593140 552.664551,446.107422 556.137390,444.681000 
	C562.963806,441.877136 569.525085,438.283264 573.935486,431.748871 
	C575.298462,429.729462 577.998169,427.193573 579.951599,427.302551 
	C583.440918,427.497162 587.172119,428.976135 590.196350,430.880341 
	C601.181824,437.797150 605.572937,448.506561 605.942810,461.002869 
	C606.233521,470.824371 605.920532,480.662476 606.067200,490.490356 
	C606.101990,492.822571 605.333618,496.070892 609.598389,496.033478 
	C613.519104,495.999054 612.987305,493.056091 612.946350,490.813599 
	C612.728577,478.892273 612.826782,466.930298 611.775574,455.074646 
	C611.294678,449.651703 608.864075,444.240479 606.543701,439.178741 
	C602.887573,431.203156 596.151062,426.130402 588.400940,422.171814 
	C590.620789,422.234894 592.687317,422.559906 594.719543,423.032684 
	C607.290588,425.957458 616.019592,433.276794 618.945862,446.031830 
	C620.427917,452.491608 620.699585,459.297058 620.873108,465.963013 
	C620.974060,469.838623 621.950256,471.637878 626.050049,471.880371 
M681.030457,627.408325 
	C679.062073,626.464294 676.997375,625.676636 675.148987,624.537903 
	C672.687317,623.021301 670.689392,622.231934 668.373840,625.020325 
	C666.075928,627.787476 663.237366,630.105652 659.834839,633.395325 
	C665.046265,636.563538 669.240662,640.767700 674.066101,641.697815 
	C683.704834,643.555664 693.808960,644.209595 702.933228,638.925964 
	C708.613220,635.636963 713.433411,630.530884 713.736389,624.196472 
	C714.513367,607.956604 713.995850,591.654785 713.995850,575.191467 
	C708.450012,575.191467 703.357361,575.191467 698.239685,575.191467 
	C698.068298,576.401917 697.917542,577.467102 697.754517,578.618774 
	C685.391663,569.886780 674.402344,574.225769 667.721191,580.102661 
	C660.299194,586.631165 658.669128,603.869080 664.487793,612.852234 
	C667.696594,617.806152 671.951477,622.635681 678.300659,622.805786 
	C684.162292,622.962830 690.067810,621.482788 695.645874,620.763550 
	C694.453735,626.660706 689.319946,628.972595 681.030457,627.408325 
M610.392273,599.904663 
	C607.476318,591.651611 604.560303,583.398560 601.677063,575.238159 
	C595.701172,575.238159 589.928955,575.238159 583.179810,575.238159 
	C589.810669,591.513245 596.221375,607.247925 602.575134,622.842896 
	C608.155579,622.842896 613.463196,622.842896 618.673096,622.842896 
	C620.231384,617.930847 621.734436,613.192627 623.432007,607.841370 
	C624.176697,609.453674 624.712097,610.291077 624.963745,611.206482 
	C628.218689,623.043945 628.208557,623.046753 640.424500,623.000610 
	C640.757629,622.999329 641.099792,622.950134 641.422424,623.008240 
	C643.963684,623.466187 645.115234,622.223511 646.026978,619.927979 
	C649.555420,611.044312 653.321899,602.255615 656.935059,593.405090 
	C659.377930,587.421204 661.712463,581.393127 664.192078,575.140991 
	C657.890015,575.140991 652.088013,575.140991 645.978882,575.140991 
	C642.555603,584.316589 639.140625,593.469727 635.725708,602.622864 
	C632.220459,592.274109 640.939697,584.642700 641.658386,575.210938 
	C636.422791,575.210938 631.296570,575.210938 626.255371,575.210938 
	C625.418091,578.531067 624.637451,581.626587 623.755188,585.124939 
	C623.153809,584.100647 622.725586,583.588196 622.528564,582.998413 
	C621.646851,580.357971 621.590942,576.465027 619.796387,575.356934 
	C617.619934,574.013000 613.995422,575.011169 610.997437,575.001892 
	C609.069275,574.995911 607.141113,575.000732 604.633057,575.000732 
	C606.537415,579.567017 608.658997,583.376038 609.691101,587.460327 
	C610.913940,592.299622 615.944397,596.924622 611.175354,602.896240 
	C611.057434,601.771545 610.989014,601.118774 610.392273,599.904663 
M513.827271,556.000977 
	C510.632782,555.704163 509.894104,557.428284 509.962616,560.270752 
	C510.100311,565.983582 510.003601,571.702026 510.003601,577.646118 
	C508.183136,576.954346 506.685120,576.655762 505.489136,575.887085 
	C497.142090,570.522705 482.076416,576.183472 478.814545,585.009277 
	C476.465942,591.364014 475.475128,597.657654 476.080475,604.185608 
	C476.935272,613.403625 483.747955,621.834717 492.269897,623.611633 
	C499.810364,625.184021 507.265808,624.329895 513.241943,618.650085 
	C518.427368,627.245178 526.031189,622.984497 533.573181,624.060974 
	C531.117249,617.251587 536.781128,609.878235 528.866699,604.817078 
	C528.866699,588.860840 528.866699,572.591370 528.866699,556.000305 
	C524.018005,556.000305 519.395874,556.000305 513.827271,556.000977 
M399.462280,573.999817 
	C395.061920,574.967285 390.661560,575.934692 385.914429,576.978394 
	C385.914429,570.652100 385.914429,563.597351 385.914429,556.279419 
	C379.713318,556.279419 374.007568,556.279419 368.255981,556.279419 
	C368.255981,578.598511 368.255981,600.637817 368.255981,622.803467 
	C373.593140,622.803467 378.672943,622.803467 383.746887,622.803467 
	C383.933228,621.558411 384.090393,620.508362 384.260742,619.370178 
	C393.321289,625.107727 404.811005,625.809509 410.797180,620.602478 
	C418.731842,613.700439 423.470154,601.755554 419.142395,590.094727 
	C415.187531,579.438782 409.489502,574.058899 399.462280,573.999817 
M466.619904,581.108704 
	C464.693909,579.724792 462.795563,578.300293 460.836853,576.964417 
	C454.484222,572.631897 447.167816,573.514587 440.332794,574.245056 
	C434.680847,574.849243 429.256866,577.586182 423.468750,579.463501 
	C425.262207,583.537048 426.684052,586.420410 427.805206,589.416321 
	C428.803528,592.084045 430.009491,592.548889 432.630035,591.155457 
	C435.562408,589.596191 438.803223,588.576172 441.975800,587.519409 
	C446.189819,586.115845 450.052765,588.016357 450.819214,592.000488 
	C447.617859,592.000488 444.425781,591.651794 441.344757,592.087830 
	C437.412994,592.644348 433.241760,593.169983 429.760803,594.894104 
	C423.104492,598.190918 420.742523,605.519531 422.282867,611.476562 
	C424.308411,619.310120 429.483429,623.129700 436.754761,624.032227 
	C443.651398,624.888123 449.291412,622.142090 454.435059,618.222839 
	C456.801270,622.258545 459.875854,624.158630 464.538940,624.071289 
	C475.001648,623.875183 475.065704,624.030334 474.945770,613.433655 
	C474.922974,611.415894 474.821686,608.213318 473.685242,607.624207 
	C470.709717,606.081970 471.337830,603.817871 470.929596,601.452332 
	C469.793518,594.869263 468.316071,588.345154 466.619904,581.108704 
M556.643799,574.000061 
	C549.289368,573.942139 542.836304,576.455627 536.757812,580.568237 
	C538.268250,583.838867 539.728882,586.712830 540.929749,589.691650 
	C541.922241,592.153809 543.129822,592.392090 545.479614,591.225403 
	C548.592285,589.680115 551.905823,588.446899 555.249451,587.483582 
	C559.049622,586.388672 562.118286,587.565491 564.475891,592.000000 
	C560.545776,592.000000 557.244263,591.625977 554.067261,592.095215 
	C550.147583,592.674133 545.920959,593.212158 542.550049,595.075806 
	C533.665527,599.987427 532.630554,611.496582 538.970581,618.510132 
	C546.764709,627.132263 559.144775,625.219299 567.330383,617.893799 
	C571.586487,627.223572 579.786499,623.137878 586.999268,624.044189 
	C586.999268,619.492676 587.023926,615.370239 586.984863,611.248413 
	C586.972412,609.933472 587.175171,607.681580 586.624817,607.456116 
	C582.585632,605.801208 584.347595,602.420410 584.021667,599.713989 
	C583.591797,596.144775 583.857544,592.393616 582.842285,589.015869 
	C581.295166,583.868835 579.398254,579.225220 573.312134,576.681274 
	C568.020569,574.469421 562.974792,574.025574 556.643799,574.000061 
M615.886169,487.668610 
	C612.505432,493.743134 613.195801,494.985168 619.965210,494.997894 
	C622.453613,495.002594 624.946289,495.091187 627.429443,494.976990 
	C631.508850,494.789398 633.962158,491.978058 633.998291,487.631012 
	C634.031494,483.643250 631.066040,480.445648 627.427856,479.953796 
	C621.585571,479.164032 619.956726,484.578766 615.886169,487.668610 
M595.668457,480.192780 
	C595.008484,480.128357 594.349121,480.016052 593.688354,480.007050 
	C588.113586,479.931335 584.975342,482.666199 584.998779,487.556854 
	C585.023254,492.681030 587.686401,494.976624 593.646179,494.999115 
	C595.978088,495.007935 598.323975,495.152191 600.636658,494.940948 
	C602.016113,494.814941 604.161316,494.443451 604.496521,493.599823 
	C604.963501,492.424713 604.489685,490.377502 603.657776,489.280243 
	C601.385315,486.282684 598.714233,483.587280 595.668457,480.192780 
z"/>
<path fill="#D3D3D3" opacity="1.000000" stroke="none" 
	d="
M625.956177,471.016907 
	C621.950256,471.637878 620.974060,469.838623 620.873108,465.963013 
	C620.699585,459.297058 620.427917,452.491608 618.945862,446.031830 
	C616.019592,433.276794 607.290588,425.957458 594.719543,423.032684 
	C592.687317,422.559906 590.620789,422.234894 588.400940,422.171814 
	C596.151062,426.130402 602.887573,431.203156 606.543701,439.178741 
	C608.864075,444.240479 611.294678,449.651703 611.775574,455.074646 
	C612.826782,466.930298 612.728577,478.892273 612.946350,490.813599 
	C612.987305,493.056091 613.519104,495.999054 609.598389,496.033478 
	C605.333618,496.070892 606.101990,492.822571 606.067200,490.490356 
	C605.920532,480.662476 606.233521,470.824371 605.942810,461.002869 
	C605.572937,448.506561 601.181824,437.797150 590.196350,430.880341 
	C587.172119,428.976135 583.440918,427.497162 579.951599,427.302551 
	C577.998169,427.193573 575.298462,429.729462 573.935486,431.748871 
	C569.525085,438.283264 562.963806,441.877136 556.137390,444.681000 
	C552.664551,446.107422 551.850830,447.593140 551.936584,450.929108 
	C552.137512,458.754669 552.044373,466.589172 551.987366,474.419495 
	C551.941589,480.702576 548.111450,484.052551 541.203979,483.999390 
	C534.825806,483.950256 531.018494,480.277191 531.005249,474.102936 
	C530.986267,465.287720 531.000427,456.472412 531.000427,447.237793 
	C529.090637,447.139435 527.353271,447.049957 525.000183,446.928772 
	C525.000183,459.241364 525.108643,471.346893 524.910522,483.447418 
	C524.869873,485.930237 524.026550,488.558472 522.945068,490.830170 
	C521.115234,494.673767 515.800842,496.588348 510.914124,494.777618 
	C507.106567,493.366730 503.821014,491.122223 503.919800,485.923645 
	C504.162811,473.129974 503.999329,460.328583 503.999329,447.265106 
	C497.299530,447.265106 490.900757,447.265106 484.000549,447.265106 
	C484.000549,459.773315 484.003143,472.213409 483.999573,484.653473 
	C483.997620,491.361389 480.426514,494.977386 473.796417,494.999756 
	C466.663818,495.023804 463.016907,491.545074 463.007843,484.608063 
	C462.986908,468.613464 463.025482,452.618713 462.990906,436.624176 
	C462.974121,428.870667 464.598083,420.696594 458.113953,415.588989 
	C455.918060,418.025269 453.903534,422.032257 450.820038,423.188477 
	C447.667206,424.370697 443.287354,423.286499 439.810089,422.112213 
	C438.380981,421.629578 437.171112,418.333740 437.122681,416.287720 
	C436.862610,405.297546 437.423065,394.275574 436.842224,383.310028 
	C436.489349,376.648376 440.620850,374.319824 446.140808,374.039246 
	C450.117310,373.837128 454.112366,373.999817 458.099152,373.999817 
	C491.088104,373.999817 524.077026,374.000885 557.065979,373.998657 
	C562.328186,373.998322 566.004272,369.810883 564.887390,364.515656 
	C564.343872,361.939026 563.096191,359.330231 561.546509,357.184235 
	C558.348511,352.755676 558.162964,349.770355 561.573730,346.966339 
	C564.209473,344.799469 570.183228,345.956757 572.584473,349.143829 
	C578.147949,356.528259 579.326355,364.762238 577.076904,373.999756 
	C590.553040,373.999756 603.856873,373.995880 617.160645,374.001251 
	C624.629944,374.004272 628.026550,377.375671 628.000000,384.736511 
	C627.975098,391.629150 624.432556,394.990723 617.152344,394.997467 
	C607.000671,395.006897 596.848999,394.999847 586.616760,394.999847 
	C585.538208,401.966888 584.481750,408.791290 583.537781,414.888977 
	C589.986511,416.229370 596.860229,416.925110 603.208496,419.132050 
	C615.946228,423.560303 623.402161,433.298401 625.809998,446.258911 
	C627.182678,453.647400 626.668945,461.386383 626.886841,469.655273 
	C626.498108,470.567627 626.227112,470.792267 625.956177,471.016907 
M569.095398,355.730927 
	C568.726746,355.118896 568.358032,354.506897 567.989319,353.894897 
	C567.754822,354.046631 567.520264,354.198395 567.285767,354.350159 
	C567.830505,355.258148 568.375244,356.166168 569.014771,357.915375 
	C569.405334,363.221710 569.795959,368.528046 570.149536,373.331390 
	C574.085754,369.282104 574.091431,363.803741 569.095398,355.730927 
M519.001282,454.508362 
	C519.001282,450.077637 519.001282,445.646912 519.001282,440.999847 
	C527.067566,440.999847 534.542053,440.900543 542.012878,441.025421 
	C551.032532,441.176147 558.423828,437.325806 564.856567,431.566772 
	C575.926819,421.655975 579.692261,408.546753 579.887146,394.254303 
	C579.944580,390.039032 581.159363,388.802551 585.310608,388.912231 
	C595.462463,389.180542 605.626099,389.009857 615.785034,388.993744 
	C618.924072,388.988739 622.015137,388.684296 621.966370,384.473145 
	C621.918640,380.363831 618.823059,380.036957 615.764343,380.016693 
	C607.937317,379.964783 600.109741,379.998901 592.282349,379.998871 
	C577.317322,379.998749 562.352295,379.998840 547.893616,379.998840 
	C547.893616,392.290405 548.217468,404.229462 547.741699,416.136566 
	C547.538025,421.231567 543.450684,424.114136 538.309570,423.925934 
	C535.470032,423.822021 532.115784,423.725891 529.990906,422.219452 
	C527.977600,420.792145 527.266479,417.528198 525.984070,415.071136 
	C514.191956,433.521149 493.950134,439.822754 469.000397,428.496521 
	C469.000397,446.698242 469.024841,464.829712 468.977264,482.960999 
	C468.968964,486.127899 470.092896,488.932343 473.318787,488.803375 
	C476.577820,488.673065 478.084930,486.010864 478.042603,482.506683 
	C477.923828,472.682251 478.001282,462.855469 478.001343,453.029602 
	C478.001343,449.100372 478.001343,445.171143 478.001343,440.999878 
	C487.450500,440.999878 496.262634,441.198059 505.059052,440.912384 
	C509.166046,440.778992 510.142334,442.284485 510.078735,446.128387 
	C509.872070,458.615448 509.872650,471.110901 510.143860,483.595459 
	C510.183228,485.408997 512.136230,487.180969 513.203796,488.972168 
	C514.899170,487.733521 516.873840,486.729736 518.186157,485.168976 
	C518.985535,484.218201 518.958496,482.410614 518.969299,480.985352 
	C519.033813,472.492310 519.001282,463.998535 519.001282,454.508362 
M479.143158,425.657837 
	C511.434845,435.989136 528.905823,408.342529 525.485779,380.241486 
	C502.772980,380.241486 480.049988,380.241486 456.523376,380.241486 
	C457.385925,387.000031 457.547150,393.599640 459.171692,399.816925 
	C462.038940,410.790100 467.230621,420.421173 479.143158,425.657837 
M538.923401,417.632446 
	C539.949097,415.867188 541.794189,414.132172 541.860779,412.331451 
	C542.174500,403.844910 542.040527,395.339905 541.956604,386.842590 
	C541.944458,385.616577 541.682922,384.081909 540.924255,383.246246 
	C539.743591,381.945862 537.918701,380.189209 536.587708,380.358887 
	C535.253723,380.528900 533.260803,382.758087 533.160156,384.196899 
	C532.527954,393.233917 532.030273,402.307526 532.184631,411.357178 
	C532.236938,414.428192 533.132568,418.564972 538.923401,417.632446 
M442.001648,406.433838 
	C442.001526,408.263184 442.059723,410.094757 441.988495,411.921356 
	C441.860779,415.197876 442.256561,418.074066 446.520508,417.984924 
	C450.712250,417.897308 450.993164,414.884308 450.996490,411.746918 
	C451.005493,403.265472 450.892670,394.782013 451.052246,386.303589 
	C451.115631,382.935760 449.511322,380.263336 446.655182,380.254150 
	C443.537628,380.244110 441.877289,382.989319 441.959625,386.495789 
	C442.107971,392.811829 442.001617,399.133820 442.001648,406.433838 
M537.000793,467.384888 
	C537.001404,469.216705 536.774841,471.084351 537.056885,472.871765 
	C537.462341,475.441345 538.001587,478.749603 541.564209,477.798798 
	C543.330017,477.327545 545.712280,474.816498 545.796753,473.127319 
	C546.226257,464.541016 545.994812,455.921692 545.994812,447.260468 
	C542.767822,447.260468 540.037109,447.260468 537.000854,447.260468 
	C537.000854,453.816406 537.000854,460.114685 537.000793,467.384888 
M566.248901,351.835022 
	C565.924255,351.762939 565.599670,351.690857 565.275024,351.618744 
	C565.229492,351.892273 565.183960,352.165833 565.138428,352.439362 
	C565.602905,352.496185 566.067383,352.553009 566.248901,351.835022 
z"/>
<path fill="#D3D3D3" opacity="1.000000" stroke="none" 
	d="
M681.336060,627.672607 
	C689.319946,628.972595 694.453735,626.660706 695.645874,620.763550 
	C690.067810,621.482788 684.162292,622.962830 678.300659,622.805786 
	C671.951477,622.635681 667.696594,617.806152 664.487793,612.852234 
	C658.669128,603.869080 660.299194,586.631165 667.721191,580.102661 
	C674.402344,574.225769 685.391663,569.886780 697.754517,578.618774 
	C697.917542,577.467102 698.068298,576.401917 698.239685,575.191467 
	C703.357361,575.191467 708.450012,575.191467 713.995850,575.191467 
	C713.995850,591.654785 714.513367,607.956604 713.736389,624.196472 
	C713.433411,630.530884 708.613220,635.636963 702.933228,638.925964 
	C693.808960,644.209595 683.704834,643.555664 674.066101,641.697815 
	C669.240662,640.767700 665.046265,636.563538 659.834839,633.395325 
	C663.237366,630.105652 666.075928,627.787476 668.373840,625.020325 
	C670.689392,622.231934 672.687317,623.021301 675.148987,624.537903 
	C676.997375,625.676636 679.062073,626.464294 681.336060,627.672607 
M695.187134,604.249207 
	C695.455078,602.031860 696.093201,599.782715 695.905640,597.604553 
	C695.611450,594.187012 689.979431,589.200378 687.626282,590.167236 
	C684.375244,591.502869 680.716675,593.236328 681.155579,597.451782 
	C681.483582,600.601501 682.313171,604.588867 684.447876,606.449280 
	C687.548889,609.151855 691.701416,608.396851 695.187134,604.249207 
z"/>
<path fill="#D3D3D3" opacity="1.000000" stroke="none" 
	d="
M610.656372,600.185303 
	C610.989014,601.118774 611.057434,601.771545 611.175354,602.896240 
	C615.944397,596.924622 610.913940,592.299622 609.691101,587.460327 
	C608.658997,583.376038 606.537415,579.567017 604.633057,575.000732 
	C607.141113,575.000732 609.069275,574.995911 610.997437,575.001892 
	C613.995422,575.011169 617.619934,574.013000 619.796387,575.356934 
	C621.590942,576.465027 621.646851,580.357971 622.528564,582.998413 
	C622.725586,583.588196 623.153809,584.100647 623.755188,585.124939 
	C624.637451,581.626587 625.418091,578.531067 626.255371,575.210938 
	C631.296570,575.210938 636.422791,575.210938 641.658386,575.210938 
	C640.939697,584.642700 632.220459,592.274109 635.725708,602.622864 
	C639.140625,593.469727 642.555603,584.316589 645.978882,575.140991 
	C652.088013,575.140991 657.890015,575.140991 664.192078,575.140991 
	C661.712463,581.393127 659.377930,587.421204 656.935059,593.405090 
	C653.321899,602.255615 649.555420,611.044312 646.026978,619.927979 
	C645.115234,622.223511 643.963684,623.466187 641.422424,623.008240 
	C641.099792,622.950134 640.757629,622.999329 640.424500,623.000610 
	C628.208557,623.046753 628.218689,623.043945 624.963745,611.206482 
	C624.712097,610.291077 624.176697,609.453674 623.432007,607.841370 
	C621.734436,613.192627 620.231384,617.930847 618.673096,622.842896 
	C613.463196,622.842896 608.155579,622.842896 602.575134,622.842896 
	C596.221375,607.247925 589.810669,591.513245 583.179810,575.238159 
	C589.928955,575.238159 595.701172,575.238159 601.677063,575.238159 
	C604.560303,583.398560 607.476318,591.651611 610.656372,600.185303 
z"/>
<path fill="#D3D3D3" opacity="1.000000" stroke="none" 
	d="
M514.300537,556.000610 
	C519.395874,556.000305 524.018005,556.000305 528.866699,556.000305 
	C528.866699,572.591370 528.866699,588.860840 528.866699,604.817078 
	C536.781128,609.878235 531.117249,617.251587 533.573181,624.060974 
	C526.031189,622.984497 518.427368,627.245178 513.241943,618.650085 
	C507.265808,624.329895 499.810364,625.184021 492.269897,623.611633 
	C483.747955,621.834717 476.935272,613.403625 476.080475,604.185608 
	C475.475128,597.657654 476.465942,591.364014 478.814545,585.009277 
	C482.076416,576.183472 497.142090,570.522705 505.489136,575.887085 
	C506.685120,576.655762 508.183136,576.954346 510.003601,577.646118 
	C510.003601,571.702026 510.100311,565.983582 509.962616,560.270752 
	C509.894104,557.428284 510.632782,555.704163 514.300537,556.000610 
M509.998718,602.098511 
	C509.998901,600.445435 510.107208,598.783691 509.975861,597.141174 
	C509.731903,594.090698 504.300140,589.179993 501.830231,590.127686 
	C498.053162,591.577148 495.167603,594.129883 494.990570,598.680786 
	C494.849274,602.313843 498.054810,607.257690 501.598328,607.773071 
	C505.369324,608.321411 508.515442,606.859436 509.998718,602.098511 
z"/>
<path fill="#D3D3D3" opacity="1.000000" stroke="none" 
	d="
M399.915131,573.999878 
	C409.489502,574.058899 415.187531,579.438782 419.142395,590.094727 
	C423.470154,601.755554 418.731842,613.700439 410.797180,620.602478 
	C404.811005,625.809509 393.321289,625.107727 384.260742,619.370178 
	C384.090393,620.508362 383.933228,621.558411 383.746887,622.803467 
	C378.672943,622.803467 373.593140,622.803467 368.255981,622.803467 
	C368.255981,600.637817 368.255981,578.598511 368.255981,556.279419 
	C374.007568,556.279419 379.713318,556.279419 385.914429,556.279419 
	C385.914429,563.597351 385.914429,570.652100 385.914429,576.978394 
	C390.661560,575.934692 395.061920,574.967285 399.915131,573.999878 
M394.267426,607.944946 
	C401.599030,604.869690 403.753326,598.530823 398.887695,593.271606 
	C397.388031,591.650574 394.387451,590.056580 392.481018,590.445374 
	C387.941711,591.371094 385.716797,595.730652 386.010559,601.115540 
	C386.265076,605.781616 389.466461,607.341858 394.267426,607.944946 
z"/>
<path fill="#D3D3D3" opacity="1.000000" stroke="none" 
	d="
M466.796661,581.453247 
	C468.316071,588.345154 469.793518,594.869263 470.929596,601.452332 
	C471.337830,603.817871 470.709717,606.081970 473.685242,607.624207 
	C474.821686,608.213318 474.922974,611.415894 474.945770,613.433655 
	C475.065704,624.030334 475.001648,623.875183 464.538940,624.071289 
	C459.875854,624.158630 456.801270,622.258545 454.435059,618.222839 
	C449.291412,622.142090 443.651398,624.888123 436.754761,624.032227 
	C429.483429,623.129700 424.308411,619.310120 422.282867,611.476562 
	C420.742523,605.519531 423.104492,598.190918 429.760803,594.894104 
	C433.241760,593.169983 437.412994,592.644348 441.344757,592.087830 
	C444.425781,591.651794 447.617859,592.000488 450.819214,592.000488 
	C450.052765,588.016357 446.189819,586.115845 441.975800,587.519409 
	C438.803223,588.576172 435.562408,589.596191 432.630035,591.155457 
	C430.009491,592.548889 428.803528,592.084045 427.805206,589.416321 
	C426.684052,586.420410 425.262207,583.537048 423.468750,579.463501 
	C429.256866,577.586182 434.680847,574.849243 440.332794,574.245056 
	C447.167816,573.514587 454.484222,572.631897 460.836853,576.964417 
	C462.795563,578.300293 464.693909,579.724792 466.796661,581.453247 
M443.863586,609.978577 
	C446.958984,608.630493 453.000732,610.224060 450.409882,603.000610 
	C448.743561,603.000610 446.835754,602.600098 445.214966,603.110718 
	C443.513397,603.646729 442.086853,605.055786 440.540131,606.083374 
	C441.388550,607.317688 442.236938,608.551941 443.863586,609.978577 
z"/>
<path fill="#D3D3D3" opacity="1.000000" stroke="none" 
	d="
M557.117493,574.000000 
	C562.974792,574.025574 568.020569,574.469421 573.312134,576.681274 
	C579.398254,579.225220 581.295166,583.868835 582.842285,589.015869 
	C583.857544,592.393616 583.591797,596.144775 584.021667,599.713989 
	C584.347595,602.420410 582.585632,605.801208 586.624817,607.456116 
	C587.175171,607.681580 586.972412,609.933472 586.984863,611.248413 
	C587.023926,615.370239 586.999268,619.492676 586.999268,624.044189 
	C579.786499,623.137878 571.586487,627.223572 567.330383,617.893799 
	C559.144775,625.219299 546.764709,627.132263 538.970581,618.510132 
	C532.630554,611.496582 533.665527,599.987427 542.550049,595.075806 
	C545.920959,593.212158 550.147583,592.674133 554.067261,592.095215 
	C557.244263,591.625977 560.545776,592.000000 564.475891,592.000000 
	C562.118286,587.565491 559.049622,586.388672 555.249451,587.483582 
	C551.905823,588.446899 548.592285,589.680115 545.479614,591.225403 
	C543.129822,592.392090 541.922241,592.153809 540.929749,589.691650 
	C539.728882,586.712830 538.268250,583.838867 536.757812,580.568237 
	C542.836304,576.455627 549.289368,573.942139 557.117493,574.000000 
M559.475159,603.003174 
	C557.825317,603.003174 556.175415,603.003174 554.499268,603.003174 
	C553.972229,604.641113 553.507568,606.084900 552.584045,608.954956 
	C556.156921,608.954956 559.213440,609.479431 561.908203,608.720154 
	C563.141846,608.372498 563.663757,605.498779 564.754089,603.268066 
	C562.645691,603.139526 561.509705,603.070251 559.475159,603.003174 
z"/>
<path fill="#D3D3D3" opacity="1.000000" stroke="none" 
	d="
M626.003113,471.448639 
	C626.227112,470.792267 626.498108,470.567627 626.907959,470.116516 
	C628.757507,468.025513 630.355896,466.040039 632.204224,464.323700 
	C635.258118,461.487885 638.730652,461.248505 642.549622,462.872864 
	C646.262817,464.452240 646.311401,467.632233 645.870300,470.661621 
	C645.624451,472.349609 644.209412,475.075104 643.059082,475.217773 
	C637.648560,475.888550 632.146973,475.874115 626.679016,475.850067 
	C626.463501,475.849121 626.259399,473.262299 626.003113,471.448639 
z"/>
<path fill="#D4D4D4" opacity="1.000000" stroke="none" 
	d="
M616.124756,487.376404 
	C619.956726,484.578766 621.585571,479.164032 627.427856,479.953796 
	C631.066040,480.445648 634.031494,483.643250 633.998291,487.631012 
	C633.962158,491.978058 631.508850,494.789398 627.429443,494.976990 
	C624.946289,495.091187 622.453613,495.002594 619.965210,494.997894 
	C613.195801,494.985168 612.505432,493.743134 616.124756,487.376404 
z"/>
<path fill="#D2D2D2" opacity="1.000000" stroke="none" 
	d="
M595.934753,480.482483 
	C598.714233,483.587280 601.385315,486.282684 603.657776,489.280243 
	C604.489685,490.377502 604.963501,492.424713 604.496521,493.599823 
	C604.161316,494.443451 602.016113,494.814941 600.636658,494.940948 
	C598.323975,495.152191 595.978088,495.007935 593.646179,494.999115 
	C587.686401,494.976624 585.023254,492.681030 584.998779,487.556854 
	C584.975342,482.666199 588.113586,479.931335 593.688354,480.007050 
	C594.349121,480.016052 595.008484,480.128357 595.934753,480.482483 
z"/>
<path fill="#000000" opacity="1.000000" stroke="none" 
	d="
M519.001282,455.006683 
	C519.001282,463.998535 519.033813,472.492310 518.969299,480.985352 
	C518.958496,482.410614 518.985535,484.218201 518.186157,485.168976 
	C516.873840,486.729736 514.899170,487.733521 513.203796,488.972168 
	C512.136230,487.180969 510.183228,485.408997 510.143860,483.595459 
	C509.872650,471.110901 509.872070,458.615448 510.078735,446.128387 
	C510.142334,442.284485 509.166046,440.778992 505.059052,440.912384 
	C496.262634,441.198059 487.450500,440.999878 478.001343,440.999878 
	C478.001343,445.171143 478.001343,449.100372 478.001343,453.029602 
	C478.001282,462.855469 477.923828,472.682251 478.042603,482.506683 
	C478.084930,486.010864 476.577820,488.673065 473.318787,488.803375 
	C470.092896,488.932343 468.968964,486.127899 468.977264,482.960999 
	C469.024841,464.829712 469.000397,446.698242 469.000397,428.496521 
	C493.950134,439.822754 514.191956,433.521149 525.983398,415.071533 
	C527.266479,417.528198 527.977600,420.792145 529.990906,422.219452 
	C532.115784,423.725891 535.470032,423.822021 538.309570,423.925934 
	C543.450684,424.114136 547.538025,421.231567 547.741699,416.136566 
	C548.217468,404.229462 547.893616,392.290405 547.893616,379.998840 
	C562.352295,379.998840 577.317322,379.998749 592.282349,379.998871 
	C600.109741,379.998901 607.937317,379.964783 615.764343,380.016693 
	C618.823059,380.036957 621.918640,380.363831 621.966370,384.473145 
	C622.015137,388.684296 618.924072,388.988739 615.785034,388.993744 
	C605.626099,389.009857 595.462463,389.180542 585.310608,388.912231 
	C581.159363,388.802551 579.944580,390.039032 579.887146,394.254303 
	C579.692261,408.546753 575.926819,421.655975 564.856567,431.566772 
	C558.423828,437.325806 551.032532,441.176147 542.012878,441.025421 
	C534.542053,440.900543 527.067566,440.999847 519.001282,440.999847 
	C519.001282,445.646912 519.001282,450.077637 519.001282,455.006683 
z"/>
<path fill="#000000" opacity="1.000000" stroke="none" 
	d="
M478.857483,425.378723 
	C467.230621,420.421173 462.038940,410.790100 459.171692,399.816925 
	C457.547150,393.599640 457.385925,387.000031 456.523376,380.241486 
	C480.049988,380.241486 502.772980,380.241486 525.485779,380.241486 
	C528.905823,408.342529 511.434845,435.989136 478.857483,425.378723 
M483.947113,418.387726 
	C484.317139,419.086212 484.622192,419.829346 485.067108,420.476379 
	C490.994049,429.096466 490.996307,429.091217 497.136322,420.475464 
	C498.659180,418.338593 500.204956,416.217987 502.525360,413.001465 
	C497.456116,413.001465 494.322876,413.001465 491.189636,413.001465 
	C488.156311,413.001465 485.123016,413.001465 481.412323,413.001465 
	C482.335632,415.192078 482.883789,416.492615 483.947113,418.387726 
M511.650299,392.976898 
	C509.469208,393.137817 506.865814,392.657043 505.269867,393.707214 
	C504.353912,394.309937 504.312500,397.998230 505.263855,399.199341 
	C506.259857,400.456818 509.222778,401.284149 510.786591,400.742432 
	C514.723755,399.378510 512.842651,395.974426 511.650299,392.976898 
M472.476318,400.992889 
	C475.191528,401.227966 477.858246,400.570526 477.811157,397.526428 
	C477.782532,395.675537 476.229889,392.777466 474.752075,392.320099 
	C473.265961,391.860199 469.935394,393.427032 469.389801,394.858917 
	C468.710754,396.640869 467.216858,400.341766 472.476318,400.992889 
z"/>
<path fill="#000000" opacity="1.000000" stroke="none" 
	d="
M538.555725,417.797119 
	C533.132568,418.564972 532.236938,414.428192 532.184631,411.357178 
	C532.030273,402.307526 532.527954,393.233917 533.160156,384.196899 
	C533.260803,382.758087 535.253723,380.528900 536.587708,380.358887 
	C537.918701,380.189209 539.743591,381.945862 540.924255,383.246246 
	C541.682922,384.081909 541.944458,385.616577 541.956604,386.842590 
	C542.040527,395.339905 542.174500,403.844910 541.860779,412.331451 
	C541.794189,414.132172 539.949097,415.867188 538.555725,417.797119 
z"/>
<path fill="#000000" opacity="1.000000" stroke="none" 
	d="
M442.001648,405.943604 
	C442.001617,399.133820 442.107971,392.811829 441.959625,386.495789 
	C441.877289,382.989319 443.537628,380.244110 446.655182,380.254150 
	C449.511322,380.263336 451.115631,382.935760 451.052246,386.303589 
	C450.892670,394.782013 451.005493,403.265472 450.996490,411.746918 
	C450.993164,414.884308 450.712250,417.897308 446.520508,417.984924 
	C442.256561,418.074066 441.860779,415.197876 441.988495,411.921356 
	C442.059723,410.094757 442.001526,408.263184 442.001648,405.943604 
z"/>
<path fill="#000000" opacity="1.000000" stroke="none" 
	d="
M537.000854,466.898926 
	C537.000854,460.114685 537.000854,453.816406 537.000854,447.260468 
	C540.037109,447.260468 542.767822,447.260468 545.994812,447.260468 
	C545.994812,455.921692 546.226257,464.541016 545.796753,473.127319 
	C545.712280,474.816498 543.330017,477.327545 541.564209,477.798798 
	C538.001587,478.749603 537.462341,475.441345 537.056885,472.871765 
	C536.774841,471.084351 537.001404,469.216705 537.000854,466.898926 
z"/>
<path fill="#000000" opacity="1.000000" stroke="none" 
	d="
M569.628662,356.303162 
	C574.091431,363.803741 574.085754,369.282104 570.149536,373.331390 
	C569.795959,368.528046 569.405334,363.221710 569.147949,357.305176 
	C569.396973,356.564392 569.512817,356.433777 569.628662,356.303162 
z"/>
<path fill="#000000" opacity="1.000000" stroke="none" 
	d="
M569.100586,356.884583 
	C568.375244,356.166168 567.830505,355.258148 567.285767,354.350159 
	C567.520264,354.198395 567.754822,354.046631 567.989319,353.894897 
	C568.358032,354.506897 568.726746,355.118896 569.362061,356.017029 
	C569.512817,356.433777 569.396973,356.564392 569.100586,356.884583 
z"/>
<path fill="#000000" opacity="1.000000" stroke="none" 
	d="
M566.390381,352.222443 
	C566.067383,352.553009 565.602905,352.496185 565.138428,352.439362 
	C565.183960,352.165833 565.229492,351.892273 565.275024,351.618744 
	C565.599670,351.690857 565.924255,351.762939 566.390381,352.222443 
z"/>
<path fill="#000000" opacity="1.000000" stroke="none" 
	d="
M694.928955,604.562378 
	C691.701416,608.396851 687.548889,609.151855 684.447876,606.449280 
	C682.313171,604.588867 681.483582,600.601501 681.155579,597.451782 
	C680.716675,593.236328 684.375244,591.502869 687.626282,590.167236 
	C689.979431,589.200378 695.611450,594.187012 695.905640,597.604553 
	C696.093201,599.782715 695.455078,602.031860 694.928955,604.562378 
z"/>
<path fill="#000000" opacity="1.000000" stroke="none" 
	d="
M509.989685,602.521362 
	C508.515442,606.859436 505.369324,608.321411 501.598328,607.773071 
	C498.054810,607.257690 494.849274,602.313843 494.990570,598.680786 
	C495.167603,594.129883 498.053162,591.577148 501.830231,590.127686 
	C504.300140,589.179993 509.731903,594.090698 509.975861,597.141174 
	C510.107208,598.783691 509.998901,600.445435 509.989685,602.521362 
z"/>
<path fill="#000000" opacity="1.000000" stroke="none" 
	d="
M393.866882,607.969543 
	C389.466461,607.341858 386.265076,605.781616 386.010559,601.115540 
	C385.716797,595.730652 387.941711,591.371094 392.481018,590.445374 
	C394.387451,590.056580 397.388031,591.650574 398.887695,593.271606 
	C403.753326,598.530823 401.599030,604.869690 393.866882,607.969543 
z"/>
<path fill="#000000" opacity="1.000000" stroke="none" 
	d="
M443.474487,609.882446 
	C442.236938,608.551941 441.388550,607.317688 440.540161,606.083374 
	C442.086853,605.055786 443.513397,603.646729 445.214966,603.110718 
	C446.835754,602.600098 448.743561,603.000610 450.409882,603.000610 
	C453.000732,610.224060 446.958984,608.630493 443.474487,609.882446 
z"/>
<path fill="#000000" opacity="1.000000" stroke="none" 
	d="
M559.924438,603.002075 
	C561.509705,603.070251 562.645691,603.139526 564.754089,603.268066 
	C563.663757,605.498779 563.141846,608.372498 561.908203,608.720154 
	C559.213440,609.479431 556.156921,608.954956 552.584045,608.954956 
	C553.507568,606.084900 553.972229,604.641113 554.499268,603.003174 
	C556.175415,603.003174 557.825317,603.003174 559.924438,603.002075 
z"/>
<path fill="#D4D4D4" opacity="1.000000" stroke="none" 
	d="
M483.689514,418.090454 
	C482.883789,416.492615 482.335632,415.192078 481.412323,413.001465 
	C485.123016,413.001465 488.156311,413.001465 491.189636,413.001465 
	C494.322876,413.001465 497.456116,413.001465 502.525360,413.001465 
	C500.204956,416.217987 498.659180,418.338593 497.136322,420.475464 
	C490.996307,429.091217 490.994049,429.096466 485.067108,420.476379 
	C484.622192,419.829346 484.317139,419.086212 483.689514,418.090454 
z"/>
<path fill="#D2D2D2" opacity="1.000000" stroke="none" 
	d="
M512.060852,393.095764 
	C512.842651,395.974426 514.723755,399.378510 510.786591,400.742432 
	C509.222778,401.284149 506.259857,400.456818 505.263855,399.199341 
	C504.312500,397.998230 504.353912,394.309937 505.269867,393.707214 
	C506.865814,392.657043 509.469208,393.137817 512.060852,393.095764 
z"/>
<path fill="#D5D5D5" opacity="1.000000" stroke="none" 
	d="
M472.050446,400.983215 
	C467.216858,400.341766 468.710754,396.640869 469.389801,394.858917 
	C469.935394,393.427032 473.265961,391.860199 474.752075,392.320099 
	C476.229889,392.777466 477.782532,395.675537 477.811157,397.526428 
	C477.858246,400.570526 475.191528,401.227966 472.050446,400.983215 
z"/>
</svg>