<svg class='svg-img' style="border-radius: 49%;" version="1.1" id="Layer_1" xmlns="http://www.w3.org/2000/svg" xmlns:xlink="http://www.w3.org/1999/xlink" x="0px" y="0px"
	 width="100%" viewBox="0 0 1080 1080" enable-background="new 0 0 1080 1080" xml:space="preserve">
<!--     background -->
<path fill="#fff000" stroke="none" 
	d="
M1.000000,388.000000 
	C1.000000,258.681519 1.000000,129.863068 1.000000,1.022300 
	C360.943604,1.022300 720.887207,1.022300 1080.915405,1.022300 
	C1080.915405,360.902039 1080.915405,720.804138 1080.915405,1080.853027 
	C721.000061,1080.853027 361.000031,1080.853027 1.000000,1080.853027 
	C1.000000,850.112366 1.000000,619.306213 1.000000,388.000000 
M473.014587,562.086121 
	C473.014587,512.486633 473.014587,462.887115 473.014587,413.299652 
	C482.635895,413.299652 491.701233,413.299652 501.000763,413.299652 
	C501.000763,415.404999 501.000763,417.217896 501.000763,419.030792 
	C501.000763,451.527283 500.961456,484.023865 501.045441,516.520142 
	C501.057312,521.109070 501.217651,525.785889 502.103271,530.265076 
	C503.759949,538.644226 507.963684,545.519531 514.517212,551.346252 
	C523.005859,558.893433 532.804504,560.114380 543.496765,560.125427 
	C555.708923,560.138123 572.232666,549.039551 575.925598,535.935181 
	C577.578735,530.068970 578.819702,523.866150 578.868713,517.804871 
	C579.145020,483.644165 578.967163,449.479858 579.105469,415.317474 
	C579.112366,413.613495 580.191284,410.959747 581.502930,410.366730 
	C591.689636,405.760895 602.337830,402.114166 612.311462,397.110687 
	C636.717407,384.866974 656.522827,367.173920 672.101135,344.712921 
	C673.862244,342.173828 676.408752,338.420349 678.709961,338.332184 
	C686.864197,338.019562 695.428955,337.728119 703.187317,339.830475 
	C724.411072,345.581726 742.345276,357.016449 757.172546,373.569214 
	C767.320557,384.898163 774.892456,397.659088 780.704651,411.464996 
	C788.948364,431.046661 792.358459,451.844147 793.883240,472.883179 
	C794.839844,486.082886 794.884216,499.363281 794.955566,512.609497 
	C795.104614,540.272400 795.158081,567.938110 794.885498,595.599121 
	C794.820129,602.230835 798.848572,604.704651 804.196228,604.927429 
	C809.456848,605.146667 813.027832,601.264771 812.987366,595.699463 
	C812.676880,552.958374 812.722595,510.208710 811.759216,467.481995 
	C811.475952,454.916260 808.926208,442.283966 806.305420,429.917328 
	C802.747986,413.130951 796.156494,397.419739 787.300598,382.609344 
	C777.666992,366.498413 765.354309,352.982788 750.182800,342.035187 
	C734.834351,330.959900 718.113770,322.922546 699.309265,319.731873 
	C695.590881,319.100983 691.799255,318.901398 688.041443,318.502899 
	C689.513000,317.208466 691.025146,316.977234 692.529236,317.021271 
	C702.445618,317.311310 712.413940,317.130585 722.261475,318.128723 
	C733.826599,319.300995 745.647888,320.281158 756.717102,323.529144 
	C780.677734,330.559753 801.989014,342.251160 818.547852,361.896698 
	C827.642395,372.686554 834.481445,384.511658 839.627319,397.400787 
	C848.312805,419.155670 851.647095,441.873810 851.047791,465.259674 
	C850.766052,476.251251 850.992554,487.256042 851.002869,498.254852 
	C851.008850,504.682495 854.478943,508.920563 859.775452,509.011078 
	C865.281250,509.105164 869.927917,504.625946 869.955322,498.533203 
	C870.098816,466.642090 871.550537,434.667847 862.058655,403.525238 
	C855.945557,383.468445 846.926819,364.894653 833.318970,349.051056 
	C818.996216,332.375092 801.182129,320.129913 780.628052,311.895630 
	C760.989502,304.028107 740.832764,299.002716 719.573059,299.000153 
	C711.794556,298.999207 704.016113,299.000000 696.060608,299.000000 
	C705.660339,270.874939 710.438843,242.406387 710.086975,212.999924 
	C712.488159,212.999924 714.309570,212.999924 716.130981,212.999924 
	C756.293335,212.999939 796.456848,213.151962 836.616577,212.826050 
	C842.245056,212.780380 848.133240,211.083023 853.418518,208.952652 
	C867.202209,203.396866 878.124207,185.795715 874.189026,166.409668 
	C870.775085,149.591583 855.668091,135.850723 838.509644,135.920532 
	C785.182922,136.137482 731.854797,136.000031 678.527222,136.000076 
	C676.760498,136.000076 674.993835,136.000076 672.809143,136.000076 
	C679.683655,119.796013 681.686768,103.483078 678.841675,86.780365 
	C675.866272,69.312683 668.715027,53.463650 657.751648,39.579376 
	C651.324951,31.440586 643.571167,25.865713 631.993469,25.717381 
	C619.043030,25.551460 608.720337,38.512955 612.545349,53.265400 
	C614.198547,59.641392 618.494629,63.801464 622.219727,68.510178 
	C627.831848,75.604256 631.916870,83.434395 632.892090,92.374352 
	C634.406616,106.258369 630.518982,119.134460 623.950623,131.267227 
	C622.147339,134.598221 619.731018,136.139450 615.422119,136.134338 
	C477.937164,135.971085 340.451935,136.023712 202.966873,135.907059 
	C197.872253,135.902740 193.842484,136.646133 191.901917,141.935806 
	C177.692902,133.964706 163.286591,133.114334 149.597549,141.334518 
	C139.239410,147.554535 131.802917,156.309998 131.896194,169.902359 
	C132.182068,211.562561 132.112335,253.226608 131.883255,294.887512 
	C131.847244,301.435486 134.573990,306.736877 138.117401,311.307129 
	C148.745529,325.015289 163.118942,330.057251 179.923386,325.866608 
	C194.584930,322.210358 204.505432,312.793152 207.930130,297.772095 
	C209.497986,290.895233 209.784561,283.726257 210.392426,278.796661 
	C217.251144,289.684296 224.800064,302.302643 233.114075,314.394928 
	C235.061325,317.227081 236.028305,319.552460 236.026932,322.760742 
	C235.993057,402.252167 235.989624,481.743622 236.042511,561.235046 
	C236.044556,564.301270 236.501724,567.393677 237.012955,570.429016 
	C241.037628,594.325134 261.395935,605.758667 283.134003,601.612366 
	C302.729675,597.874695 313.815674,582.693970 313.917206,563.150391 
	C314.167328,514.990173 313.998718,466.827850 313.998505,418.666382 
	C313.998505,416.888397 313.998505,415.110413 313.998505,413.265869 
	C341.230072,413.265869 367.961823,413.265869 395.000763,413.265869 
	C395.000763,415.330231 395.000732,417.132721 395.000732,418.935211 
	C395.000458,467.263336 395.022766,515.591431 394.977692,563.919556 
	C394.970245,571.905640 396.959381,579.234070 401.489990,585.805054 
	C413.100464,602.644287 430.534271,605.420166 446.801056,600.357727 
	C461.430756,595.804749 472.932526,582.311279 472.589417,563.988281 
	C472.691589,563.665222 472.793762,563.342224 473.014587,562.086121 
M919.199280,824.963867 
	C916.067444,825.642578 912.951599,826.810364 909.800964,826.913574 
	C897.632263,827.312317 887.267700,822.390808 877.766785,815.280273 
	C875.517334,813.596741 873.126648,811.431824 870.513672,814.081238 
	C863.113098,821.585083 855.935425,829.308716 848.026550,837.622131 
	C851.187439,840.397583 853.822266,842.933289 856.681091,845.184509 
	C872.385193,857.550903 890.516479,862.588928 910.205933,861.894470 
	C921.615295,861.492004 932.742310,859.715515 943.641785,855.311646 
	C967.257019,845.770081 981.711304,826.531128 981.923218,801.420410 
	C982.221191,766.093506 981.999268,730.762146 981.999756,695.432739 
	C981.999817,693.678406 981.999817,691.924011 981.999817,690.351562 
	C968.244995,690.351562 955.174011,690.351562 941.861206,690.351562 
	C941.861206,694.624146 941.861206,698.544373 941.861206,701.878540 
	C936.799622,698.329590 932.128357,693.184265 926.408020,691.397461 
	C909.895813,686.239990 893.437378,685.802979 877.404358,694.740112 
	C865.599670,701.320374 857.835449,711.248840 853.268677,723.084778 
	C848.113770,736.445068 847.412903,750.853271 850.052979,765.110107 
	C852.648804,779.128174 858.709900,791.276611 869.988220,800.503784 
	C884.291138,812.205688 900.593262,813.573181 917.511353,808.878540 
	C924.121826,807.044189 930.030273,802.680176 935.939026,799.633057 
	C936.074280,810.861816 929.919678,821.517517 919.199280,824.963867 
M708.540833,698.901733 
	C713.688965,712.201172 718.854248,725.494019 723.970459,738.805725 
	C724.971985,741.411682 726.896912,744.293884 726.458618,746.695129 
	C725.441711,752.266968 723.241089,757.622742 721.520264,763.066101 
	C721.144531,763.096985 720.768799,763.127930 720.393066,763.158875 
	C711.572144,738.732971 702.751221,714.307129 694.028748,690.153809 
	C679.311401,690.153809 665.338867,690.153809 651.079834,690.153809 
	C651.156860,691.423096 650.940247,692.638611 651.332947,693.606995 
	C657.153320,707.957703 663.070801,722.269043 668.931580,736.603455 
	C674.181458,749.443726 679.371460,762.308411 684.622375,775.148315 
	C689.237061,786.432617 693.863831,797.712524 698.608276,808.942444 
	C698.987549,809.840088 700.317322,810.916382 701.216370,810.926392 
	C713.031860,811.059021 724.849365,811.014587 737.017029,811.014587 
	C741.901184,797.396667 746.726257,783.943298 751.757019,769.916565 
	C756.308960,783.126221 760.637024,795.881714 765.191284,808.555908 
	C765.583679,809.647949 767.462952,810.879395 768.670593,810.899414 
	C779.497620,811.079102 790.331421,811.107971 801.155945,810.862061 
	C802.471924,810.832153 804.309814,809.178345 804.934082,807.827942 
	C806.935364,803.498596 808.388611,798.920227 810.218445,794.506348 
	C815.594727,781.537903 821.079407,768.614319 826.468628,755.651245 
	C834.398254,736.577637 842.293579,717.489746 850.172546,698.395142 
	C851.260376,695.758728 852.170166,693.048950 853.301086,689.999084 
	C839.053406,689.999084 825.566406,689.913452 812.084229,690.128723 
	C810.702087,690.150757 808.572449,691.693481 808.099182,693.003662 
	C801.578735,711.055054 795.325195,729.202759 788.918213,747.295593 
	C786.972656,752.789734 784.758606,758.188782 782.122803,765.049133 
	C780.473328,758.869141 779.194824,754.256470 778.027039,749.615967 
	C777.561951,747.768127 776.549011,745.555969 777.134094,744.025146 
	C782.146362,730.910400 787.542908,717.943176 792.657166,704.866394 
	C794.483521,700.196594 795.850281,695.347107 797.562195,690.170227 
	C784.499634,690.170227 772.377747,690.170227 760.270996,690.170227 
	C757.471802,699.746643 754.721558,709.155518 751.585205,719.885681 
	C748.751282,709.417542 746.383179,700.455627 743.807068,691.553894 
	C743.596558,690.826538 741.971191,690.076721 740.996826,690.068176 
	C729.370667,689.965881 717.743286,690.002136 705.335266,690.002136 
	C706.403259,693.161621 707.257446,695.688293 708.540833,698.901733 
M391.905060,796.494446 
	C414.556610,820.174561 454.596497,819.243835 470.681183,796.332642 
	C476.525879,809.536133 483.908722,814.401611 498.408630,813.920776 
	C504.430756,813.721069 510.483215,812.942993 516.388428,811.761047 
	C517.858643,811.466675 519.785156,808.614563 519.840698,806.884766 
	C520.166870,796.730591 519.957275,786.560303 520.029968,776.396179 
	C520.048950,773.747009 519.703430,772.115784 516.371521,771.865479 
	C511.810669,771.522888 509.457977,768.741882 509.930908,763.926208 
	C510.076782,762.441040 509.947754,760.929077 509.947723,759.429382 
	C509.947388,723.103333 509.888855,686.777039 510.020386,650.451416 
	C510.037140,645.825623 509.144012,643.613586 503.798279,643.874390 
	C494.488983,644.328796 485.141510,644.000854 475.810059,644.000854 
	C463.033020,644.000854 463.032959,644.000854 463.032959,656.781006 
	C463.032928,671.690369 463.032990,686.599731 463.032990,702.709290 
	C452.978455,690.980896 440.830688,687.556946 426.975372,687.930420 
	C407.171692,688.464294 393.277344,698.127441 384.028931,715.003174 
	C376.577667,728.599609 374.893768,743.461670 376.112732,758.654419 
	C376.517883,763.703674 377.382355,768.995605 379.403625,773.573059 
	C382.816467,781.301575 387.318878,788.548889 391.905060,796.494446 
M200.972229,808.660828 
	C222.173538,797.575439 231.701126,779.033264 233.950943,756.159973 
	C235.083374,744.646973 233.124786,733.352905 228.818375,722.608398 
	C224.628754,712.155457 218.261703,703.411194 209.128220,696.408325 
	C198.556213,688.302490 186.599731,687.258301 174.250381,688.117920 
	C163.124863,688.892273 153.576950,693.550232 145.922958,703.250061 
	C145.922958,683.045898 145.922958,663.691406 145.922958,644.279907 
	C130.408142,644.279907 115.351730,644.279907 100.189117,644.279907 
	C100.189117,699.937378 100.189117,755.315613 100.189117,810.794800 
	C113.454117,810.794800 126.520721,810.794800 140.057175,810.794800 
	C140.057175,806.244568 140.057175,801.895996 140.057175,798.309753 
	C144.649170,801.861938 148.833618,806.480591 154.041046,808.866089 
	C169.235825,815.826843 184.835312,815.796814 200.972229,808.660828 
M253.604523,698.015076 
	C252.162598,698.774597 250.776474,699.676758 249.268158,700.266479 
	C244.933395,701.961304 244.324387,704.865540 246.223022,708.767212 
	C249.331055,715.154114 252.362549,721.578369 255.495697,727.952820 
	C258.031433,733.111877 258.696564,733.186584 263.384186,730.111572 
	C274.629822,722.734497 286.868225,718.946777 300.449219,719.988831 
	C309.788605,720.705444 314.754272,726.209412 313.529816,734.902649 
	C303.124603,732.897522 292.837799,731.348816 282.033234,732.806335 
	C265.836090,734.991394 252.230255,740.959167 244.055466,755.607422 
	C236.032791,769.983093 237.469742,784.971252 247.146118,797.247009 
	C259.027466,812.320068 275.222992,816.515686 293.853882,812.420715 
	C304.911072,809.990417 313.843170,804.217896 321.549438,795.876038 
	C322.148834,796.830627 322.783081,797.442322 322.945587,798.160767 
	C324.668854,805.779236 329.398621,809.865356 336.901398,812.164246 
	C347.253967,815.336243 357.287445,813.391052 367.387726,811.775269 
	C368.796234,811.549927 370.819061,808.962280 370.864380,807.418579 
	C371.172028,796.935608 370.972931,786.438782 371.061401,775.947510 
	C371.084015,773.264221 370.091003,772.387268 367.418671,771.801208 
	C365.220947,771.319275 362.625763,769.677673 361.557404,767.786926 
	C360.285156,765.535400 360.111450,762.475281 360.062592,759.754700 
	C359.898132,750.597900 360.416199,741.412537 359.892456,732.282898 
	C359.277039,721.555115 355.828766,711.718384 348.211792,703.702454 
	C337.542145,692.474121 323.633026,689.062988 309.018829,688.149902 
	C300.978760,687.647583 292.846344,688.816467 284.750702,688.961609 
	C273.761993,689.158630 263.898926,692.933105 253.604523,698.015076 
M598.486572,724.035583 
	C599.880859,727.503418 601.275085,730.971313 603.109070,735.532776 
	C600.219299,734.616943 599.186768,734.120728 598.106750,733.973938 
	C588.754333,732.702881 579.534485,731.572693 569.915222,732.779419 
	C556.780884,734.427307 545.569946,738.817383 536.619690,748.811707 
	C528.442993,757.942261 526.260071,768.268127 527.841675,780.290039 
	C530.525269,800.689026 549.431335,813.154663 567.319580,813.890381 
	C584.327209,814.589905 598.413330,808.025024 609.637207,795.125488 
	C613.297241,807.476746 617.052612,810.486389 628.681824,813.158630 
	C637.971375,815.293335 646.758179,812.757751 655.724792,811.728210 
	C656.591980,811.628662 657.886108,809.679016 657.900330,808.574219 
	C658.056885,796.437744 657.998596,784.298584 657.998596,774.002747 
	C654.304443,771.293945 650.627869,769.887817 649.298584,767.283569 
	C647.776672,764.301941 648.177368,760.262878 648.027405,756.671387 
	C647.606812,746.598694 647.812134,736.473877 646.854004,726.457397 
	C646.039917,717.947449 642.404846,710.171875 636.393555,703.969788 
	C625.304443,692.528992 610.959778,688.713745 595.667053,688.113525 
	C587.775330,687.803650 579.839355,688.885498 571.920105,688.951050 
	C558.447510,689.062622 547.066467,695.252380 535.655701,701.232361 
	C534.293823,701.946045 533.044922,705.402283 533.614746,706.851807 
	C536.592651,714.426514 540.255432,721.728516 543.509949,729.199463 
	C544.980042,732.574097 546.921631,732.565063 549.710938,730.889709 
	C557.410461,726.265503 565.076294,721.943237 574.408875,720.799805 
	C582.643860,719.790771 590.454651,719.260376 598.486572,724.035583 
M761.011475,560.522156 
	C759.833252,559.344788 758.677673,558.143616 757.473328,556.993652 
	C745.609863,545.665955 726.842529,543.383789 715.434082,558.849243 
	C708.705505,567.970520 708.918762,585.126770 716.841797,593.357544 
	C725.040466,601.874512 735.749817,602.779358 746.474243,602.839050 
	C754.122742,602.881653 761.783875,601.714905 769.428345,600.974365 
	C772.973267,600.630981 776.832947,600.767944 779.944885,599.354858 
	C784.925659,597.093018 785.326782,590.786621 781.440369,585.924377 
	C774.804749,577.622681 768.161133,569.327393 761.011475,560.522156 
M884.329224,529.000488 
	C894.468018,529.666321 904.601379,530.764832 914.747009,530.893494 
	C928.866455,531.072510 944.693665,521.006409 943.237061,502.746033 
	C942.367554,491.845093 938.164978,483.679138 928.730652,479.140900 
	C919.969666,474.926605 910.553833,475.357208 902.339355,481.257324 
	C889.070740,490.787567 880.575562,504.700378 870.556641,517.166626 
	C867.757446,520.649536 870.690002,526.765991 875.261658,528.019775 
	C877.867859,528.734558 880.680176,528.698181 884.329224,529.000488 
M840.510498,600.999390 
	C850.753235,601.332581 861.002441,602.043823 871.236389,601.867188 
	C878.146118,601.748047 884.292236,599.221069 889.590210,594.101440 
	C899.362244,584.658203 899.720520,565.753601 888.954224,555.357788 
	C878.080688,544.858459 862.346313,545.395508 851.774353,556.002014 
	C842.406799,565.400024 834.078979,575.850586 825.505066,586.016052 
	C821.766479,590.448608 823.947266,598.860840 828.897156,599.837708 
	C832.394226,600.527893 836.006653,600.633362 840.510498,600.999390 
z"/>
<!--   dog outline and uring stream -->
<path fill="#000"  stroke="none" 
	d="
M472.048279,564.146301 
	C472.932526,582.311279 461.430756,595.804749 446.801056,600.357727 
	C430.534271,605.420166 413.100464,602.644287 401.489990,585.805054 
	C396.959381,579.234070 394.970245,571.905640 394.977692,563.919556 
	C395.022766,515.591431 395.000458,467.263336 395.000732,418.935211 
	C395.000732,417.132721 395.000763,415.330231 395.000763,413.265869 
	C367.961823,413.265869 341.230072,413.265869 313.998505,413.265869 
	C313.998505,415.110413 313.998505,416.888397 313.998505,418.666382 
	C313.998718,466.827850 314.167328,514.990173 313.917206,563.150391 
	C313.815674,582.693970 302.729675,597.874695 283.134003,601.612366 
	C261.395935,605.758667 241.037628,594.325134 237.012955,570.429016 
	C236.501724,567.393677 236.044556,564.301270 236.042511,561.235046 
	C235.989624,481.743622 235.993057,402.252167 236.026932,322.760742 
	C236.028305,319.552460 235.061325,317.227081 233.114075,314.394928 
	C224.800064,302.302643 217.251144,289.684296 210.392426,278.796661 
	C209.784561,283.726257 209.497986,290.895233 207.930130,297.772095 
	C204.505432,312.793152 194.584930,322.210358 179.923386,325.866608 
	C163.118942,330.057251 148.745529,325.015289 138.117401,311.307129 
	C134.573990,306.736877 131.847244,301.435486 131.883255,294.887512 
	C132.112335,253.226608 132.182068,211.562561 131.896194,169.902359 
	C131.802917,156.309998 139.239410,147.554535 149.597549,141.334518 
	C163.286591,133.114334 177.692902,133.964706 191.901917,141.935806 
	C193.842484,136.646133 197.872253,135.902740 202.966873,135.907059 
	C340.451935,136.023712 477.937164,135.971085 615.422119,136.134338 
	C619.731018,136.139450 622.147339,134.598221 623.950623,131.267227 
	C630.518982,119.134460 634.406616,106.258369 632.892090,92.374352 
	C631.916870,83.434395 627.831848,75.604256 622.219727,68.510178 
	C618.494629,63.801464 614.198547,59.641392 612.545349,53.265400 
	C608.720337,38.512955 619.043030,25.551460 631.993469,25.717381 
	C643.571167,25.865713 651.324951,31.440586 657.751648,39.579376 
	C668.715027,53.463650 675.866272,69.312683 678.841675,86.780365 
	C681.686768,103.483078 679.683655,119.796013 672.809143,136.000076 
	C674.993835,136.000076 676.760498,136.000076 678.527222,136.000076 
	C731.854797,136.000031 785.182922,136.137482 838.509644,135.920532 
	C855.668091,135.850723 870.775085,149.591583 874.189026,166.409668 
	C878.124207,185.795715 867.202209,203.396866 853.418518,208.952652 
	C848.133240,211.083023 842.245056,212.780380 836.616577,212.826050 
	C796.456848,213.151962 756.293335,212.999939 716.130981,212.999924 
	C714.309570,212.999924 712.488159,212.999924 710.086975,212.999924 
	C710.438843,242.406387 705.660339,270.874939 696.060608,299.000000 
	C704.016113,299.000000 711.794556,298.999207 719.573059,299.000153 
	C740.832764,299.002716 760.989502,304.028107 780.628052,311.895630 
	C801.182129,320.129913 818.996216,332.375092 833.318970,349.051056 
	C846.926819,364.894653 855.945557,383.468445 862.058655,403.525238 
	C871.550537,434.667847 870.098816,466.642090 869.955322,498.533203 
	C869.927917,504.625946 865.281250,509.105164 859.775452,509.011078 
	C854.478943,508.920563 851.008850,504.682495 851.002869,498.254852 
	C850.992554,487.256042 850.766052,476.251251 851.047791,465.259674 
	C851.647095,441.873810 848.312805,419.155670 839.627319,397.400787 
	C834.481445,384.511658 827.642395,372.686554 818.547852,361.896698 
	C801.989014,342.251160 780.677734,330.559753 756.717102,323.529144 
	C745.647888,320.281158 733.826599,319.300995 722.261475,318.128723 
	C712.413940,317.130585 702.445618,317.311310 692.529236,317.021271 
	C691.025146,316.977234 689.513000,317.208466 688.041443,318.502899 
	C691.799255,318.901398 695.590881,319.100983 699.309265,319.731873 
	C718.113770,322.922546 734.834351,330.959900 750.182800,342.035187 
	C765.354309,352.982788 777.666992,366.498413 787.300598,382.609344 
	C796.156494,397.419739 802.747986,413.130951 806.305420,429.917328 
	C808.926208,442.283966 811.475952,454.916260 811.759216,467.481995 
	C812.722595,510.208710 812.676880,552.958374 812.987366,595.699463 
	C813.027832,601.264771 809.456848,605.146667 804.196228,604.927429 
	C798.848572,604.704651 794.820129,602.230835 794.885498,595.599121 
	C795.158081,567.938110 795.104614,540.272400 794.955566,512.609497 
	C794.884216,499.363281 794.839844,486.082886 793.883240,472.883179 
	C792.358459,451.844147 788.948364,431.046661 780.704651,411.464996 
	C774.892456,397.659088 767.320557,384.898163 757.172546,373.569214 
	C742.345276,357.016449 724.411072,345.581726 703.187317,339.830475 
	C695.428955,337.728119 686.864197,338.019562 678.709961,338.332184 
	C676.408752,338.420349 673.862244,342.173828 672.101135,344.712921 
	C656.522827,367.173920 636.717407,384.866974 612.311462,397.110687 
	C602.337830,402.114166 591.689636,405.760895 581.502930,410.366730 
	C580.191284,410.959747 579.112366,413.613495 579.105469,415.317474 
	C578.967163,449.479858 579.145020,483.644165 578.868713,517.804871 
	C578.819702,523.866150 577.578735,530.068970 575.925598,535.935181 
	C572.232666,549.039551 555.708923,560.138123 543.496765,560.125427 
	C532.804504,560.114380 523.005859,558.893433 514.517212,551.346252 
	C507.963684,545.519531 503.759949,538.644226 502.103271,530.265076 
	C501.217651,525.785889 501.057312,521.109070 501.045441,516.520142 
	C500.961456,484.023865 501.000763,451.527283 501.000763,419.030792 
	C501.000763,417.217896 501.000763,415.404999 501.000763,413.299652 
	C491.701233,413.299652 482.635895,413.299652 473.014587,413.299652 
	C473.014587,462.887115 473.014587,512.486633 472.758179,562.692139 
	C472.295563,563.551514 472.144409,563.834167 472.048279,564.146301 
M281.478821,351.041351 
	C272.782837,346.192413 264.086853,341.343475 254.999207,336.276154 
	C254.999207,338.011047 254.999191,339.774323 254.999191,341.537567 
	C254.999191,393.366364 254.999130,445.195190 254.999237,497.023987 
	C254.999298,519.355408 254.809555,541.689026 255.074753,564.017273 
	C255.222504,576.456848 266.036407,584.653503 276.151703,583.770813 
	C287.488342,582.781555 295.055328,573.765381 295.037415,562.661987 
	C294.954254,511.166595 295.160370,459.670044 294.849854,408.176422 
	C294.795593,399.178192 298.270111,394.692993 308.421509,394.838989 
	C339.412415,395.284607 370.417694,395.273895 401.408661,394.829590 
	C410.398651,394.700684 414.127197,399.338257 414.097839,407.468414 
	C413.908997,459.796509 414.149200,512.126404 413.878448,564.453796 
	C413.822876,575.197327 426.166718,585.319031 434.971588,583.817444 
	C447.185669,581.734436 453.904144,573.869995 453.940002,561.091553 
	C454.085815,509.096527 453.999481,457.100800 454.001556,405.105347 
	C454.001862,397.564209 456.523773,395.003510 463.968689,395.002350 
	C493.799408,394.997681 523.639038,394.569122 553.457092,395.184662 
	C568.144226,395.487823 581.381897,391.428070 594.172668,385.285156 
	C613.059204,376.214813 630.120667,364.631805 644.129700,348.661133 
	C653.399780,338.093018 662.131409,327.175446 667.970947,314.449554 
	C673.658691,302.054291 678.762024,289.288818 682.859070,276.287903 
	C690.354553,252.503021 691.690918,227.773087 691.911926,203.013107 
	C691.951477,198.584457 694.128418,196.339981 697.716431,195.069229 
	C699.810242,194.327682 702.167419,194.044006 704.406738,194.041107 
	C748.402832,193.984207 792.400085,194.132370 836.393555,193.788864 
	C840.710754,193.755173 845.694763,191.681793 849.162842,188.996811 
	C855.887451,183.790741 858.252197,174.241165 854.893555,167.400528 
	C851.106018,159.686417 845.243408,154.032898 834.640320,154.027115 
	C743.314941,153.977371 651.989563,153.997116 560.664185,154.013672 
	C559.465576,154.013885 558.267029,154.242004 558.399475,154.228561 
	C559.642456,161.705017 561.779297,168.786606 561.840515,175.886078 
	C562.175171,214.713135 562.000732,253.544601 561.996582,292.374542 
	C561.996399,293.703369 562.235291,295.116791 561.875549,296.348511 
	C555.035645,319.771667 535.233154,331.489258 512.131409,325.785828 
	C496.619293,321.956116 484.528595,307.859192 483.955170,291.695496 
	C483.775269,286.624115 483.062988,281.571594 482.746429,278.152679 
	C476.308075,288.250427 469.712616,299.628571 462.116119,310.293671 
	C446.209656,332.625549 424.753143,347.809723 398.656860,355.887726 
	C387.779114,359.254883 376.380463,361.170868 365.090546,362.919586 
	C348.674988,365.462280 332.144043,364.751343 315.964691,361.217834 
	C304.521484,358.718719 293.392456,354.781036 281.478821,351.041351 
M425.500000,153.998459 
	C353.733795,153.998459 281.967560,153.998459 209.998413,153.998459 
	C209.998413,162.881531 209.628448,171.217514 210.087082,179.507660 
	C210.738358,191.279739 211.219711,203.151550 213.202850,214.736084 
	C215.531067,228.336288 218.619522,241.918167 222.777008,255.065659 
	C228.224396,272.292175 236.758362,288.045563 248.436935,302.127380 
	C260.586487,316.777039 275.275055,327.685822 292.716736,334.997040 
	C312.032104,343.093689 332.165161,346.626495 353.077911,344.946899 
	C361.519287,344.268951 370.059723,343.668854 378.300049,341.867096 
	C399.919556,337.139954 419.297333,327.678314 435.316833,312.128448 
	C449.443207,298.416168 459.268280,281.777008 466.634766,263.708618 
	C473.365814,247.198807 477.788879,229.998810 479.964905,212.279388 
	C480.841949,205.137573 481.714050,197.957520 481.900818,190.776993 
	C482.217285,178.613541 481.987793,166.435898 481.987793,153.998459 
	C463.780060,153.998459 445.140015,153.998459 425.500000,153.998459 
M502.000580,199.500000 
	C502.000488,228.147949 501.830078,256.797943 502.172363,285.441803 
	C502.227722,290.075928 503.562439,295.330963 506.051727,299.165527 
	C511.013214,306.808197 521.287720,310.144318 528.579346,307.820282 
	C537.077454,305.111755 543.940063,295.995087 543.963440,286.679016 
	C544.054993,250.203110 544.156860,213.725739 543.895142,177.251480 
	C543.826782,167.732132 539.639709,159.712250 530.244324,156.210403 
	C516.816406,151.205566 503.194122,160.184967 502.095581,175.521851 
	C501.549561,183.144394 502.000580,190.838348 502.000580,199.500000 
M191.000793,189.504364 
	C191.000595,185.507416 191.065598,181.509171 190.987198,177.513763 
	C190.799927,167.969009 184.978378,158.864807 177.099045,156.063919 
	C163.585861,151.260345 149.101746,161.352402 149.044388,176.287964 
	C148.907532,211.926239 148.973892,247.565445 149.044876,283.204102 
	C149.051331,286.442902 149.237366,289.805450 150.104156,292.896210 
	C153.289474,304.254181 165.851974,312.011169 178.314041,306.243958 
	C187.293015,302.088623 190.903259,294.699982 190.945496,285.428253 
	C191.089661,253.786972 191.000748,222.144638 191.000793,189.504364 
M560.000000,519.324219 
	C560.000000,483.941406 560.000000,448.558624 560.000000,413.335480 
	C546.279358,413.335480 533.220581,413.335480 520.000061,413.335480 
	C520.000061,450.118317 519.695435,486.570496 520.176514,523.012329 
	C520.330688,534.687805 531.424438,543.267395 541.596252,541.748474 
	C552.870239,540.064941 559.590576,533.017395 560.000000,519.324219 
M653.995483,64.547432 
	C649.981689,58.751972 646.123474,52.840302 641.907104,47.196129 
	C638.229431,42.273148 632.480286,40.527740 629.561218,42.981686 
	C626.584534,45.484047 627.914062,50.182137 632.690125,55.228664 
	C649.247314,72.723381 651.877869,93.723618 647.302002,116.199608 
	C645.929504,122.941315 643.031433,129.372437 640.858215,135.868271 
	C645.423462,135.868271 650.070251,135.868271 654.744690,135.868271 
	C655.966431,132.930832 657.126343,130.088150 658.327881,127.263222 
	C662.138428,118.304565 664.227661,108.819771 663.810791,99.234978 
	C663.292114,87.308136 659.705139,75.910027 653.995483,64.547432 
z"/>
<!--   letter g -->
<path fill="#000"  stroke="none" 
	d="
M919.568970,824.793701 
	C929.919678,821.517517 936.074280,810.861816 935.939026,799.633057 
	C930.030273,802.680176 924.121826,807.044189 917.511353,808.878540 
	C900.593262,813.573181 884.291138,812.205688 869.988220,800.503784 
	C858.709900,791.276611 852.648804,779.128174 850.052979,765.110107 
	C847.412903,750.853271 848.113770,736.445068 853.268677,723.084778 
	C857.835449,711.248840 865.599670,701.320374 877.404358,694.740112 
	C893.437378,685.802979 909.895813,686.239990 926.408020,691.397461 
	C932.128357,693.184265 936.799622,698.329590 941.861206,701.878540 
	C941.861206,698.544373 941.861206,694.624146 941.861206,690.351562 
	C955.174011,690.351562 968.244995,690.351562 981.999817,690.351562 
	C981.999817,691.924011 981.999817,693.678406 981.999756,695.432739 
	C981.999268,730.762146 982.221191,766.093506 981.923218,801.420410 
	C981.711304,826.531128 967.257019,845.770081 943.641785,855.311646 
	C932.742310,859.715515 921.615295,861.492004 910.205933,861.894470 
	C890.516479,862.588928 872.385193,857.550903 856.681091,845.184509 
	C853.822266,842.933289 851.187439,840.397583 848.026550,837.622131 
	C855.935425,829.308716 863.113098,821.585083 870.513672,814.081238 
	C873.126648,811.431824 875.517334,813.596741 877.766785,815.280273 
	C887.267700,822.390808 897.632263,827.312317 909.800964,826.913574 
	C912.951599,826.810364 916.067444,825.642578 919.568970,824.793701 
M921.089355,728.014526 
	C916.278992,726.436340 911.717896,726.743835 907.208069,729.286194 
	C897.191345,734.932861 895.286377,744.304016 896.128967,754.432190 
	C896.864685,763.274597 900.978455,769.782532 910.141785,773.261047 
	C921.961060,777.747925 936.001648,769.273071 936.001953,756.732422 
	C936.002014,753.069458 936.318054,749.369507 935.896484,745.755737 
	C935.587524,743.107849 935.000183,739.931763 933.319092,738.122559 
	C929.924011,734.468628 925.700439,731.584473 921.089355,728.014526 
z"/>
<!--   letter w -->
<path fill="#000" stroke="none" 
	d="
M708.326172,698.558350 
	C707.257446,695.688293 706.403259,693.161621 705.335266,690.002136 
	C717.743286,690.002136 729.370667,689.965881 740.996826,690.068176 
	C741.971191,690.076721 743.596558,690.826538 743.807068,691.553894 
	C746.383179,700.455627 748.751282,709.417542 751.585205,719.885681 
	C754.721558,709.155518 757.471802,699.746643 760.270996,690.170227 
	C772.377747,690.170227 784.499634,690.170227 797.562195,690.170227 
	C795.850281,695.347107 794.483521,700.196594 792.657166,704.866394 
	C787.542908,717.943176 782.146362,730.910400 777.134094,744.025146 
	C776.549011,745.555969 777.561951,747.768127 778.027039,749.615967 
	C779.194824,754.256470 780.473328,758.869141 782.122803,765.049133 
	C784.758606,758.188782 786.972656,752.789734 788.918213,747.295593 
	C795.325195,729.202759 801.578735,711.055054 808.099182,693.003662 
	C808.572449,691.693481 810.702087,690.150757 812.084229,690.128723 
	C825.566406,689.913452 839.053406,689.999084 853.301086,689.999084 
	C852.170166,693.048950 851.260376,695.758728 850.172546,698.395142 
	C842.293579,717.489746 834.398254,736.577637 826.468628,755.651245 
	C821.079407,768.614319 815.594727,781.537903 810.218445,794.506348 
	C808.388611,798.920227 806.935364,803.498596 804.934082,807.827942 
	C804.309814,809.178345 802.471924,810.832153 801.155945,810.862061 
	C790.331421,811.107971 779.497620,811.079102 768.670593,810.899414 
	C767.462952,810.879395 765.583679,809.647949 765.191284,808.555908 
	C760.637024,795.881714 756.308960,783.126221 751.757019,769.916565 
	C746.726257,783.943298 741.901184,797.396667 737.017029,811.014587 
	C724.849365,811.014587 713.031860,811.059021 701.216370,810.926392 
	C700.317322,810.916382 698.987549,809.840088 698.608276,808.942444 
	C693.863831,797.712524 689.237061,786.432617 684.622375,775.148315 
	C679.371460,762.308411 674.181458,749.443726 668.931580,736.603455 
	C663.070801,722.269043 657.153320,707.957703 651.332947,693.606995 
	C650.940247,692.638611 651.156860,691.423096 651.079834,690.153809 
	C665.338867,690.153809 679.311401,690.153809 694.028748,690.153809 
	C702.751221,714.307129 711.572144,738.732971 720.393066,763.158875 
	C720.768799,763.127930 721.144531,763.096985 721.520264,763.066101 
	C723.241089,757.622742 725.441711,752.266968 726.458618,746.695129 
	C726.896912,744.293884 724.971985,741.411682 723.970459,738.805725 
	C718.854248,725.494019 713.688965,712.201172 708.326172,698.558350 
z"/>
<!--   letter d -->
<path fill="#000" stroke="none" 
	d="
M391.634064,796.246521 
	C387.318878,788.548889 382.816467,781.301575 379.403625,773.573059 
	C377.382355,768.995605 376.517883,763.703674 376.112732,758.654419 
	C374.893768,743.461670 376.577667,728.599609 384.028931,715.003174 
	C393.277344,698.127441 407.171692,688.464294 426.975372,687.930420 
	C440.830688,687.556946 452.978455,690.980896 463.032990,702.709290 
	C463.032990,686.599731 463.032928,671.690369 463.032959,656.781006 
	C463.032959,644.000854 463.033020,644.000854 475.810059,644.000854 
	C485.141510,644.000854 494.488983,644.328796 503.798279,643.874390 
	C509.144012,643.613586 510.037140,645.825623 510.020386,650.451416 
	C509.888855,686.777039 509.947388,723.103333 509.947723,759.429382 
	C509.947754,760.929077 510.076782,762.441040 509.930908,763.926208 
	C509.457977,768.741882 511.810669,771.522888 516.371521,771.865479 
	C519.703430,772.115784 520.048950,773.747009 520.029968,776.396179 
	C519.957275,786.560303 520.166870,796.730591 519.840698,806.884766 
	C519.785156,808.614563 517.858643,811.466675 516.388428,811.761047 
	C510.483215,812.942993 504.430756,813.721069 498.408630,813.920776 
	C483.908722,814.401611 476.525879,809.536133 470.681183,796.332642 
	C454.596497,819.243835 414.556610,820.174561 391.634064,796.246521 
M462.813080,741.364502 
	C461.804779,739.736328 460.944092,737.991272 459.763336,736.499634 
	C453.687225,728.823608 443.964874,723.237183 433.912292,729.799866 
	C429.317871,732.799377 426.701508,737.488281 424.621887,742.705078 
	C420.063354,754.140320 426.191498,768.615295 435.831573,772.434509 
	C443.212616,775.358704 449.867035,774.589355 456.397278,770.842163 
	C462.437683,767.375977 463.804993,761.805542 463.114471,755.195740 
	C462.666656,750.909546 463.003510,746.541321 462.813080,741.364502 
z"/>
<!--   letter b -->
<path fill="#000"  stroke="none" 
	d="
M200.621155,808.844971 
	C184.835312,815.796814 169.235825,815.826843 154.041046,808.866089 
	C148.833618,806.480591 144.649170,801.861938 140.057175,798.309753 
	C140.057175,801.895996 140.057175,806.244568 140.057175,810.794800 
	C126.520721,810.794800 113.454117,810.794800 100.189117,810.794800 
	C100.189117,755.315613 100.189117,699.937378 100.189117,644.279907 
	C115.351730,644.279907 130.408142,644.279907 145.922958,644.279907 
	C145.922958,663.691406 145.922958,683.045898 145.922958,703.250061 
	C153.576950,693.550232 163.124863,688.892273 174.250381,688.117920 
	C186.599731,687.258301 198.556213,688.302490 209.128220,696.408325 
	C218.261703,703.411194 224.628754,712.155457 228.818375,722.608398 
	C233.124786,733.352905 235.083374,744.646973 233.950943,756.159973 
	C231.701126,779.033264 222.173538,797.575439 200.621155,808.844971 
M167.675995,774.003540 
	C181.358475,773.592834 190.467026,756.475586 185.233566,743.113220 
	C182.745697,736.761047 179.702637,730.599426 173.000488,728.148193 
	C163.926697,724.829773 157.663391,728.513367 150.964569,735.223816 
	C145.347595,740.850586 146.421173,747.666687 145.831741,754.490112 
	C145.240860,761.329956 147.034378,766.886902 152.825012,770.017029 
	C157.001831,772.274841 162.135788,772.761963 167.675995,774.003540 
z"/>
<!--   first letter a -->
<path fill="#000"  stroke="none" 
	d="
M253.987762,697.982178 
	C263.898926,692.933105 273.761993,689.158630 284.750702,688.961609 
	C292.846344,688.816467 300.978760,687.647583 309.018829,688.149902 
	C323.633026,689.062988 337.542145,692.474121 348.211792,703.702454 
	C355.828766,711.718384 359.277039,721.555115 359.892456,732.282898 
	C360.416199,741.412537 359.898132,750.597900 360.062592,759.754700 
	C360.111450,762.475281 360.285156,765.535400 361.557404,767.786926 
	C362.625763,769.677673 365.220947,771.319275 367.418671,771.801208 
	C370.091003,772.387268 371.084015,773.264221 371.061401,775.947510 
	C370.972931,786.438782 371.172028,796.935608 370.864380,807.418579 
	C370.819061,808.962280 368.796234,811.549927 367.387726,811.775269 
	C357.287445,813.391052 347.253967,815.336243 336.901398,812.164246 
	C329.398621,809.865356 324.668854,805.779236 322.945587,798.160767 
	C322.783081,797.442322 322.148834,796.830627 321.549438,795.876038 
	C313.843170,804.217896 304.911072,809.990417 293.853882,812.420715 
	C275.222992,816.515686 259.027466,812.320068 247.146118,797.247009 
	C237.469742,784.971252 236.032791,769.983093 244.055466,755.607422 
	C252.230255,740.959167 265.836090,734.991394 282.033234,732.806335 
	C292.837799,731.348816 303.124603,732.897522 313.529816,734.902649 
	C314.754272,726.209412 309.788605,720.705444 300.449219,719.988831 
	C286.868225,718.946777 274.629822,722.734497 263.384186,730.111572 
	C258.696564,733.186584 258.031433,733.111877 255.495697,727.952820 
	C252.362549,721.578369 249.331055,715.154114 246.223022,708.767212 
	C244.324387,704.865540 244.933395,701.961304 249.268158,700.266479 
	C250.776474,699.676758 252.162598,698.774597 253.987762,697.982178 
M313.765594,770.741272 
	C314.166077,769.180115 315.065186,767.542480 314.840576,766.077148 
	C314.561157,764.254028 313.701813,761.374512 312.491150,761.022888 
	C303.833954,758.508240 294.772949,755.834351 287.017639,762.877869 
	C284.823364,764.870667 282.809235,769.069702 283.418274,771.607666 
	C284.103149,774.461609 287.448639,777.896851 290.337463,778.775696 
	C299.351807,781.518005 307.213470,778.788818 313.765594,770.741272 
z"/>
<!--   second letter a -->
<path fill="#000"  stroke="none" 
	d="
M598.209045,723.751221 
	C590.454651,719.260376 582.643860,719.790771 574.408875,720.799805 
	C565.076294,721.943237 557.410461,726.265503 549.710938,730.889709 
	C546.921631,732.565063 544.980042,732.574097 543.509949,729.199463 
	C540.255432,721.728516 536.592651,714.426514 533.614746,706.851807 
	C533.044922,705.402283 534.293823,701.946045 535.655701,701.232361 
	C547.066467,695.252380 558.447510,689.062622 571.920105,688.951050 
	C579.839355,688.885498 587.775330,687.803650 595.667053,688.113525 
	C610.959778,688.713745 625.304443,692.528992 636.393555,703.969788 
	C642.404846,710.171875 646.039917,717.947449 646.854004,726.457397 
	C647.812134,736.473877 647.606812,746.598694 648.027405,756.671387 
	C648.177368,760.262878 647.776672,764.301941 649.298584,767.283569 
	C650.627869,769.887817 654.304443,771.293945 657.998596,774.002747 
	C657.998596,784.298584 658.056885,796.437744 657.900330,808.574219 
	C657.886108,809.679016 656.591980,811.628662 655.724792,811.728210 
	C646.758179,812.757751 637.971375,815.293335 628.681824,813.158630 
	C617.052612,810.486389 613.297241,807.476746 609.637207,795.125488 
	C598.413330,808.025024 584.327209,814.589905 567.319580,813.890381 
	C549.431335,813.154663 530.525269,800.689026 527.841675,780.290039 
	C526.260071,768.268127 528.442993,757.942261 536.619690,748.811707 
	C545.569946,738.817383 556.780884,734.427307 569.915222,732.779419 
	C579.534485,731.572693 588.754333,732.702881 598.106750,733.973938 
	C599.186768,734.120728 600.219299,734.616943 603.109070,735.532776 
	C601.275085,730.971313 599.880859,727.503418 598.209045,723.751221 
M601.989319,765.439453 
	C602.889465,760.757385 599.953430,760.243408 596.340149,759.760925 
	C589.968933,758.910278 583.460022,757.261719 577.547607,760.706604 
	C570.835571,764.617493 566.752625,772.600525 575.931946,777.900330 
	C579.555176,779.992371 585.202637,779.392639 589.780334,778.824646 
	C596.487793,777.992554 601.577698,772.184265 601.989319,765.439453 
z"/>
<!--   left splash outline -->
<path fill="#000"  stroke="none" 
	d="
M761.266174,560.775757 
	C768.161133,569.327393 774.804749,577.622681 781.440369,585.924377 
	C785.326782,590.786621 784.925659,597.093018 779.944885,599.354858 
	C776.832947,600.767944 772.973267,600.630981 769.428345,600.974365 
	C761.783875,601.714905 754.122742,602.881653 746.474243,602.839050 
	C735.749817,602.779358 725.040466,601.874512 716.841797,593.357544 
	C708.918762,585.126770 708.705505,567.970520 715.434082,558.849243 
	C726.842529,543.383789 745.609863,545.665955 757.473328,556.993652 
	C758.677673,558.143616 759.833252,559.344788 761.266174,560.775757 
M745.020935,568.460938 
	C741.721069,567.076721 738.411804,564.557007 735.123596,564.584351 
	C730.611206,564.621704 727.134216,569.661438 726.999512,574.128174 
	C726.828735,579.792114 729.040588,583.577087 734.196045,584.909912 
	C742.294556,587.003723 750.459839,586.414917 759.552307,584.596313 
	C754.507568,578.967896 750.031799,573.974243 745.020935,568.460938 
z"/>
<!--   right splash outline -->
<path fill="#000"  stroke="none" 
	d="
M883.864441,529.000244 
	C880.680176,528.698181 877.867859,528.734558 875.261658,528.019775 
	C870.690002,526.765991 867.757446,520.649536 870.556641,517.166626 
	C880.575562,504.700378 889.070740,490.787567 902.339355,481.257324 
	C910.553833,475.357208 919.969666,474.926605 928.730652,479.140900 
	C938.164978,483.679138 942.367554,491.845093 943.237061,502.746033 
	C944.693665,521.006409 928.866455,531.072510 914.747009,530.893494 
	C904.601379,530.764832 894.468018,529.666321 883.864441,529.000244 
M921.173950,512.977295 
	C922.087463,512.301392 923.032959,511.664307 923.908630,510.942535 
	C927.130310,508.286896 928.065002,502.199860 925.838318,498.557343 
	C922.758728,493.519684 917.867493,491.676270 913.363647,493.914124 
	C904.811768,498.163361 900.885071,506.652527 894.817444,513.179932 
	C895.009888,513.696777 895.202393,514.213623 895.394836,514.730408 
	C903.722534,514.198364 912.050293,513.666260 921.173950,512.977295 
z"/>
<!--   middle splash outline -->
<path fill="#000"  stroke="none" 
	d="
M840.039062,600.999634 
	C836.006653,600.633362 832.394226,600.527893 828.897156,599.837708 
	C823.947266,598.860840 821.766479,590.448608 825.505066,586.016052 
	C834.078979,575.850586 842.406799,565.400024 851.774353,556.002014 
	C862.346313,545.395508 878.080688,544.858459 888.954224,555.357788 
	C899.720520,565.753601 899.362244,584.658203 889.590210,594.101440 
	C884.292236,599.221069 878.146118,601.748047 871.236389,601.867188 
	C861.002441,602.043823 850.753235,601.332581 840.039062,600.999634 
M872.363159,585.183655 
	C873.292480,584.908386 874.246338,584.696411 875.146973,584.347107 
	C879.419922,582.689880 880.739319,578.893005 880.880432,574.978516 
	C881.044739,570.422119 878.412598,567.266418 874.367004,564.964966 
	C870.529541,562.781860 867.336792,564.596375 865.030701,566.708130 
	C859.004517,572.226562 853.533447,578.351013 847.841064,584.233826 
	C848.086060,584.748291 848.331116,585.262817 848.576111,585.777283 
	C856.297058,585.777283 864.018005,585.777283 872.363159,585.183655 
z"/>
<!--   unknown -->
<path fill="#fff"  stroke="none" 
	d="
M472.318848,564.067261 
	C472.144409,563.834167 472.295563,563.551514 472.698822,563.158691 
	C472.793762,563.342224 472.691589,563.665222 472.318848,564.067261 
z"/>
<!-- dog body and front ground legs -->
<path fill="#fff"  stroke="none" 
	d="
M281.801025,351.263458 
	C293.392456,354.781036 304.521484,358.718719 315.964691,361.217834 
	C332.144043,364.751343 348.674988,365.462280 365.090546,362.919586 
	C376.380463,361.170868 387.779114,359.254883 398.656860,355.887726 
	C424.753143,347.809723 446.209656,332.625549 462.116119,310.293671 
	C469.712616,299.628571 476.308075,288.250427 482.746429,278.152679 
	C483.062988,281.571594 483.775269,286.624115 483.955170,291.695496 
	C484.528595,307.859192 496.619293,321.956116 512.131409,325.785828 
	C535.233154,331.489258 555.035645,319.771667 561.875549,296.348511 
	C562.235291,295.116791 561.996399,293.703369 561.996582,292.374542 
	C562.000732,253.544601 562.175171,214.713135 561.840515,175.886078 
	C561.779297,168.786606 559.642456,161.705017 558.399475,154.228561 
	C558.267029,154.242004 559.465576,154.013885 560.664185,154.013672 
	C651.989563,153.997116 743.314941,153.977371 834.640320,154.027115 
	C845.243408,154.032898 851.106018,159.686417 854.893555,167.400528 
	C858.252197,174.241165 855.887451,183.790741 849.162842,188.996811 
	C845.694763,191.681793 840.710754,193.755173 836.393555,193.788864 
	C792.400085,194.132370 748.402832,193.984207 704.406738,194.041107 
	C702.167419,194.044006 699.810242,194.327682 697.716431,195.069229 
	C694.128418,196.339981 691.951477,198.584457 691.911926,203.013107 
	C691.690918,227.773087 690.354553,252.503021 682.859070,276.287903 
	C678.762024,289.288818 673.658691,302.054291 667.970947,314.449554 
	C662.131409,327.175446 653.399780,338.093018 644.129700,348.661133 
	C630.120667,364.631805 613.059204,376.214813 594.172668,385.285156 
	C581.381897,391.428070 568.144226,395.487823 553.457092,395.184662 
	C523.639038,394.569122 493.799408,394.997681 463.968689,395.002350 
	C456.523773,395.003510 454.001862,397.564209 454.001556,405.105347 
	C453.999481,457.100800 454.085815,509.096527 453.940002,561.091553 
	C453.904144,573.869995 447.185669,581.734436 434.971588,583.817444 
	C426.166718,585.319031 413.822876,575.197327 413.878448,564.453796 
	C414.149200,512.126404 413.908997,459.796509 414.097839,407.468414 
	C414.127197,399.338257 410.398651,394.700684 401.408661,394.829590 
	C370.417694,395.273895 339.412415,395.284607 308.421509,394.838989 
	C298.270111,394.692993 294.795593,399.178192 294.849854,408.176422 
	C295.160370,459.670044 294.954254,511.166595 295.037415,562.661987 
	C295.055328,573.765381 287.488342,582.781555 276.151703,583.770813 
	C266.036407,584.653503 255.222504,576.456848 255.074753,564.017273 
	C254.809555,541.689026 254.999298,519.355408 254.999237,497.023987 
	C254.999130,445.195190 254.999191,393.366364 254.999191,341.537567 
	C254.999191,339.774323 254.999207,338.011047 254.999207,336.276154 
	C264.086853,341.343475 272.782837,346.192413 281.801025,351.263458 
z"/>
<!-- dog face -->
<path fill="#fff"  stroke="none" 
	d="
M426.000000,153.998459 
	C445.140015,153.998459 463.780060,153.998459 481.987793,153.998459 
	C481.987793,166.435898 482.217285,178.613541 481.900818,190.776993 
	C481.714050,197.957520 480.841949,205.137573 479.964905,212.279388 
	C477.788879,229.998810 473.365814,247.198807 466.634766,263.708618 
	C459.268280,281.777008 449.443207,298.416168 435.316833,312.128448 
	C419.297333,327.678314 399.919556,337.139954 378.300049,341.867096 
	C370.059723,343.668854 361.519287,344.268951 353.077911,344.946899 
	C332.165161,346.626495 312.032104,343.093689 292.716736,334.997040 
	C275.275055,327.685822 260.586487,316.777039 248.436935,302.127380 
	C236.758362,288.045563 228.224396,272.292175 222.777008,255.065659 
	C218.619522,241.918167 215.531067,228.336288 213.202850,214.736084 
	C211.219711,203.151550 210.738358,191.279739 210.087082,179.507660 
	C209.628448,171.217514 209.998413,162.881531 209.998413,153.998459 
	C281.967560,153.998459 353.733795,153.998459 426.000000,153.998459 
M325.535828,313.991760 
	C330.357971,320.503143 335.160461,327.029175 340.010071,333.520050 
	C342.649658,337.052948 345.353607,336.780762 348.019714,333.500885 
	C358.313416,320.837708 368.749084,308.284668 378.746643,295.391907 
	C380.159637,293.569763 379.937683,289.994934 379.424103,287.442322 
	C379.257690,286.615112 375.744232,286.071289 373.758209,286.060699 
	C354.764465,285.959198 335.769470,285.936768 316.776489,286.096100 
	C314.837982,286.112335 311.558868,287.119507 311.265320,288.269897 
	C310.690674,290.522034 311.069763,293.654968 312.319733,295.616943 
	C316.238220,301.767426 320.744995,307.543152 325.535828,313.991760 
M426.103485,214.577133 
	C422.048767,207.571655 416.416382,204.920273 409.606049,206.811157 
	C400.684631,209.288193 397.930298,213.119888 398.011505,223.127609 
	C398.060486,229.160461 401.542877,232.809479 406.711731,235.149323 
	C411.281769,237.218063 419.118225,236.071869 422.333801,233.209045 
	C428.009644,228.155838 429.341187,222.164215 426.103485,214.577133 
M259.837463,225.375259 
	C262.241699,233.575363 268.762939,237.326584 278.292023,235.990906 
	C284.381195,235.137390 288.347900,228.714951 289.168518,221.311340 
	C290.175293,212.228363 279.352051,203.311020 269.507843,206.936569 
	C262.502838,209.516449 258.629608,215.751434 259.837463,225.375259 
z"/>
<!--   right ear -->
<path fill="#fff"  stroke="none" 
	d="
M502.000580,199.000000 
	C502.000580,190.838348 501.549561,183.144394 502.095581,175.521851 
	C503.194122,160.184967 516.816406,151.205566 530.244324,156.210403 
	C539.639709,159.712250 543.826782,167.732132 543.895142,177.251480 
	C544.156860,213.725739 544.054993,250.203110 543.963440,286.679016 
	C543.940063,295.995087 537.077454,305.111755 528.579346,307.820282 
	C521.287720,310.144318 511.013214,306.808197 506.051727,299.165527 
	C503.562439,295.330963 502.227722,290.075928 502.172363,285.441803 
	C501.830078,256.797943 502.000488,228.147949 502.000580,199.000000 
z"/>
<!--   left ear -->
<path fill="#fff"  stroke="none" 
	d="
M191.000793,190.003540 
	C191.000748,222.144638 191.089661,253.786972 190.945496,285.428253 
	C190.903259,294.699982 187.293015,302.088623 178.314041,306.243958 
	C165.851974,312.011169 153.289474,304.254181 150.104156,292.896210 
	C149.237366,289.805450 149.051331,286.442902 149.044876,283.204102 
	C148.973892,247.565445 148.907532,211.926239 149.044388,176.287964 
	C149.101746,161.352402 163.585861,151.260345 177.099045,156.063919 
	C184.978378,158.864807 190.799927,167.969009 190.987198,177.513763 
	C191.065598,181.509171 191.000595,185.507416 191.000793,190.003540 
z"/>
<!--   right leg on ground -->
<path fill="#fff" stroke="none" 
	d="
M560.000000,519.798340 
	C559.590576,533.017395 552.870239,540.064941 541.596252,541.748474 
	C531.424438,543.267395 520.330688,534.687805 520.176514,523.012329 
	C519.695435,486.570496 520.000061,450.118317 520.000061,413.335480 
	C533.220581,413.335480 546.279358,413.335480 560.000000,413.335480 
	C560.000000,448.558624 560.000000,483.941406 560.000000,519.798340 
z"/>
<!--   dog tail -->
<path fill="#fff"  stroke="none" 
	d="
M654.275879,64.814651 
	C659.705139,75.910027 663.292114,87.308136 663.810791,99.234978 
	C664.227661,108.819771 662.138428,118.304565 658.327881,127.263222 
	C657.126343,130.088150 655.966431,132.930832 654.744690,135.868271 
	C650.070251,135.868271 645.423462,135.868271 640.858215,135.868271 
	C643.031433,129.372437 645.929504,122.941315 647.302002,116.199608 
	C651.877869,93.723618 649.247314,72.723381 632.690125,55.228664 
	C627.914062,50.182137 626.584534,45.484047 629.561218,42.981686 
	C632.480286,40.527740 638.229431,42.273148 641.907104,47.196129 
	C646.123474,52.840302 649.981689,58.751972 654.275879,64.814651 
z"/>
<!--   letter g middle -->
<path fill="#fff000" stroke="none" 
	d="
M921.453918,728.198730 
	C925.700439,731.584473 929.924011,734.468628 933.319092,738.122559 
	C935.000183,739.931763 935.587524,743.107849 935.896484,745.755737 
	C936.318054,749.369507 936.002014,753.069458 936.001953,756.732422 
	C936.001648,769.273071 921.961060,777.747925 910.141785,773.261047 
	C900.978455,769.782532 896.864685,763.274597 896.128967,754.432190 
	C895.286377,744.304016 897.191345,734.932861 907.208069,729.286194 
	C911.717896,726.743835 916.278992,726.436340 921.453918,728.198730 
z"/>
<!--   letter d middle -->
<path fill="#fff000" stroke="none" 
	d="
M462.900940,741.787170 
	C463.003510,746.541321 462.666656,750.909546 463.114471,755.195740 
	C463.804993,761.805542 462.437683,767.375977 456.397278,770.842163 
	C449.867035,774.589355 443.212616,775.358704 435.831573,772.434509 
	C426.191498,768.615295 420.063354,754.140320 424.621887,742.705078 
	C426.701508,737.488281 429.317871,732.799377 433.912292,729.799866 
	C443.964874,723.237183 453.687225,728.823608 459.763336,736.499634 
	C460.944092,737.991272 461.804779,739.736328 462.900940,741.787170 
z"/>
<!--   letter b middle -->
<path fill="#fff000" stroke="none" 
	d="
M167.259415,774.021240 
	C162.135788,772.761963 157.001831,772.274841 152.825012,770.017029 
	C147.034378,766.886902 145.240860,761.329956 145.831741,754.490112 
	C146.421173,747.666687 145.347595,740.850586 150.964569,735.223816 
	C157.663391,728.513367 163.926697,724.829773 173.000488,728.148193 
	C179.702637,730.599426 182.745697,736.761047 185.233566,743.113220 
	C190.467026,756.475586 181.358475,773.592834 167.259415,774.021240 
z"/>
<!--   first letter a middle -->
<path fill="#fff000" stroke="none" 
	d="
M313.473328,771.002563 
	C307.213470,778.788818 299.351807,781.518005 290.337463,778.775696 
	C287.448639,777.896851 284.103149,774.461609 283.418274,771.607666 
	C282.809235,769.069702 284.823364,764.870667 287.017639,762.877869 
	C294.772949,755.834351 303.833954,758.508240 312.491150,761.022888 
	C313.701813,761.374512 314.561157,764.254028 314.840576,766.077148 
	C315.065186,767.542480 314.166077,769.180115 313.473328,771.002563 
z"/>
<!--   second letter a middle -->
<path fill="#fff000" stroke="none" 
	d="
M601.989380,765.874878 
	C601.577698,772.184265 596.487793,777.992554 589.780334,778.824646 
	C585.202637,779.392639 579.555176,779.992371 575.931946,777.900330 
	C566.752625,772.600525 570.835571,764.617493 577.547607,760.706604 
	C583.460022,757.261719 589.968933,758.910278 596.340149,759.760925 
	C599.953430,760.243408 602.889465,760.757385 601.989380,765.874878 
z"/>
<!--   left splash -->
<path fill="#fff" stroke="none" 
	d="
M745.288452,568.720825 
	C750.031799,573.974243 754.507568,578.967896 759.552307,584.596313 
	C750.459839,586.414917 742.294556,587.003723 734.196045,584.909912 
	C729.040588,583.577087 726.828735,579.792114 726.999512,574.128174 
	C727.134216,569.661438 730.611206,564.621704 735.123596,564.584351 
	C738.411804,564.557007 741.721069,567.076721 745.288452,568.720825 
z"/>
<!--   right splash -->
<path fill="#fff" stroke="none" 
	d="
M920.776001,513.055725 
	C912.050293,513.666260 903.722534,514.198364 895.394836,514.730408 
	C895.202393,514.213623 895.009888,513.696777 894.817444,513.179932 
	C900.885071,506.652527 904.811768,498.163361 913.363647,493.914124 
	C917.867493,491.676270 922.758728,493.519684 925.838318,498.557343 
	C928.065002,502.199860 927.130310,508.286896 923.908630,510.942535 
	C923.032959,511.664307 922.087463,512.301392 920.776001,513.055725 
z"/>
<!--   middle splash -->
<path fill="#fff" stroke="none" 
	d="
M872.051025,585.480469 
	C864.018005,585.777283 856.297058,585.777283 848.576111,585.777283 
	C848.331116,585.262817 848.086060,584.748291 847.841064,584.233826 
	C853.533447,578.351013 859.004517,572.226562 865.030701,566.708130 
	C867.336792,564.596375 870.529541,562.781860 874.367004,564.964966 
	C878.412598,567.266418 881.044739,570.422119 880.880432,574.978516 
	C880.739319,578.893005 879.419922,582.689880 875.146973,584.347107 
	C874.246338,584.696411 873.292480,584.908386 872.051025,585.480469 
z"/>
<!--   nose -->
<path fill="#000" stroke="none" 
	d="
M325.279846,313.727905 
	C320.744995,307.543152 316.238220,301.767426 312.319733,295.616943 
	C311.069763,293.654968 310.690674,290.522034 311.265320,288.269897 
	C311.558868,287.119507 314.837982,286.112335 316.776489,286.096100 
	C335.769470,285.936768 354.764465,285.959198 373.758209,286.060699 
	C375.744232,286.071289 379.257690,286.615112 379.424103,287.442322 
	C379.937683,289.994934 380.159637,293.569763 378.746643,295.391907 
	C368.749084,308.284668 358.313416,320.837708 348.019714,333.500885 
	C345.353607,336.780762 342.649658,337.052948 340.010071,333.520050 
	C335.160461,327.029175 330.357971,320.503143 325.279846,313.727905 
z"/>
<!--   right eye -->
<path fill="#000" stroke="none" 
	d="
M426.388062,214.867706 
	C429.341187,222.164215 428.009644,228.155838 422.333801,233.209045 
	C419.118225,236.071869 411.281769,237.218063 406.711731,235.149323 
	C401.542877,232.809479 398.060486,229.160461 398.011505,223.127609 
	C397.930298,213.119888 400.684631,209.288193 409.606049,206.811157 
	C416.416382,204.920273 422.048767,207.571655 426.388062,214.867706 
z"/>
<!--   left eye -->
<path fill="#000" stroke="none" 
	d="
M259.520966,225.108063 
	C258.629608,215.751434 262.502838,209.516449 269.507843,206.936569 
	C279.352051,203.311020 290.175293,212.228363 289.168518,221.311340 
	C288.347900,228.714951 284.381195,235.137390 278.292023,235.990906 
	C268.762939,237.326584 262.241699,233.575363 259.520966,225.108063 
z"/>
</svg>